<svg xmlns="http://www.w3.org/2000/svg" width="55.97" height="55.97" viewBox="0 0 55.97 55.97"><g id="Grupo_636" data-name="Grupo 636" transform="translate(-977.309 -511.737)"><circle id="Elipse_46" data-name="Elipse 46" cx="27.985" cy="27.985" r="27.985" transform="translate(977.309 511.737)" fill="#ffff1f"></circle><path id="Caminho_67" data-name="Caminho 67" d="M1024.74,530.673h0a5.1,5.1,0,0,0-5.041-3.983q-5.248-.006-10.5,0h-8.475q-5.226,0-10.457,0a5.043,5.043,0,0,0-5.147,5.149q-.008,8.142,0,16.286a5.061,5.061,0,0,0,5.083,5.133q7.384.009,14.769.009t14.769-.008a5.083,5.083,0,0,0,5.12-5.142l0-16.286A5.076,5.076,0,0,0,1024.74,530.673Zm-8.712,2.01q-4.736,4.718-9.446,9.461a2.224,2.224,0,0,1-1.586.684h-.006a2.245,2.245,0,0,1-1.6-.7c-3.88-3.974-7.99-8.109-12.222-12.3h27.72Zm-27.826-.838a2.021,2.021,0,0,1,.068-.555l13.049,13.12a5.106,5.106,0,0,0,4.06,1.571,5.006,5.006,0,0,0,3.293-1.564q4.053-4.058,8.113-8.111l4.4-4.394c.182-.182.36-.366.546-.558a2.229,2.229,0,0,1,.054.524V533.5q0,7.294,0,14.587a1.97,1.97,0,0,1-2.082,2.077q-14.73,0-29.456,0a1.953,1.953,0,0,1-2.039-2.038q-.009-6.978,0-13.954Z" fill="#0103a1"></path></g></svg>