<svg xmlns="http://www.w3.org/2000/svg" width="439.5" height="459.147" viewBox="0 0 439.5 459.147">
  <g id="Layer_2" data-name="Layer 2" transform="translate(-10 -0.029)">
    <g id="vector" transform="translate(0 0.029)">
      <path id="Caminho_1508" data-name="Caminho 1508" d="M340.007,53.376c25.365,22.789,41.966,54.586,68.616,100.289,26.775,45.7,63.7,105.306,49.694,140.84s-79.174,46.988-140.71,70.29S198.136,423.112,144.84,416.286,42.888,360.8,30.651,306.99C18.29,253.046,42.234,193.956,59.483,140.142,76.607,86.334,87.035,37.779,117.028,15.8s79.563-17.26,121.534-8.123C280.528,16.923,314.641,30.592,340.007,53.376Z" transform="translate(-11.886 -0.029)" fill="#f6f0ff"/>
      <path id="Caminho_1509" data-name="Caminho 1509" d="M96.433,703.982H78.79v20.9H52.923v-20.9H0V696.09l61.147-83.57H78.79v69.2H96.433Zm-43.51-22.265V655.681L34.429,681.717Z" transform="translate(10 -267.274)" fill="#421985"/>
      <path id="Caminho_1510" data-name="Caminho 1510" d="M197.21,667.675c0-32.372,9.419-57.9,42.276-57.9,32.693,0,41.791,25.523,41.791,57.9,0,32.2-9.075,57.551-41.791,57.551C206.629,725.226,197.21,699.878,197.21,667.675Zm58.233,0c0-19.526-3.771-34.6-15.929-34.6-12.333,0-16.611,15.073-16.611,34.6,0,19.351,4.278,34.085,16.611,34.085,12.158.023,15.929-14.734,15.929-34.085Z" transform="translate(-86.048 -266.079)" fill="#421985"/>
      <path id="Caminho_1511" data-name="Caminho 1511" d="M460.445,703.982H442.8v20.9H416.94v-20.9H364V696.09l61.159-83.57H442.8v69.2h17.643Zm-43.5-22.265V655.681l-18.5,26.036Z" transform="translate(-168.822 -267.274)" fill="#421985"/>
      <rect id="Retângulo_666" data-name="Retângulo 666" width="9.588" height="8.117" transform="translate(312.135 437.226) rotate(180)" fill="#e5bbfd"/>
      <path id="Caminho_1512" data-name="Caminho 1512" d="M537.692,773.45v8.117H514.88v-2.954l11.865-5.163Z" transform="translate(-224.655 -337.492)" fill="#f87858"/>
      <rect id="Retângulo_667" data-name="Retângulo 667" width="9.588" height="8.117" transform="translate(163.099 337.653) rotate(180)" fill="#e5bbfd"/>
      <path id="Caminho_1513" data-name="Caminho 1513" d="M273.3,596.8v8.117H250.49v-2.948l11.865-5.169Z" transform="translate(-109.295 -260.415)" fill="#f87858"/>
      <path id="Caminho_1514" data-name="Caminho 1514" d="M495.986,404.21c.485,4.611,10.67,203.424,10.67,203.424h-10.67L444.1,420.438Z" transform="translate(-193.772 -176.383)" fill="#99bfe5"/>
      <path id="Caminho_1515" data-name="Caminho 1515" d="M424.34,352.057c0,27-9.926,51.294-30.021,51.294-27.586,0-64.107-17.587-74.157-27.513-2.508,7.418-38.087,100.853-38.087,100.853H267.34S276.782,367.9,294.481,340c5.823-7.756,53.341-5.817,77.347,0S424.34,352.057,424.34,352.057Z" transform="translate(-116.647 -146.135)" fill="#aacef2"/>
      <path id="Caminho_1516" data-name="Caminho 1516" d="M416.375,84.1a3.467,3.467,0,0,1,3.686-2.773c2.159.152,5.687,5.857,5.687,10.473s-1.3,6.353-.907,9.706,8.934,48.831,8.934,51.6c2.153.152,9.859-.924,9.859-.924l-5.394,21.724h-15.7l-10.146-87.5Z" transform="translate(-179.936 -35.498)" fill="#d6a8f0"/>
      <path id="Caminho_1517" data-name="Caminho 1517" d="M414.688,89.617l-3.309,13.37s-32.642-3.794-36.2-4.673,1.8-22.987,5.462-22.085S414.688,89.617,414.688,89.617Z" transform="translate(-163.187 -33.265)"/>
      <path id="Caminho_1518" data-name="Caminho 1518" d="M471.693,170.17c41.757,0,31.459,107.882,26.583,111.918s-56.79-9.582-61.1-15.591S441.068,170.17,471.693,170.17Z" transform="translate(-190.284 -74.266)" fill="#353b6e"/>
      <path id="Caminho_1519" data-name="Caminho 1519" d="M441.033,156.907c-2.294.778-15.749,6.026-15.749,6.026-.225-2.706-10.569-56.367-11.206-59.654a26.841,26.841,0,0,0,1.9-10.315c0-8.81-3.579-15.963-7.993-15.963S400,84.153,400,92.963a26.407,26.407,0,0,0,2.086,10.744c-.5,6.708-4.949,70.4,4.137,79.478,9.582,9.582,32.879.941,47.039-5.5C456.291,176.641,452.159,153.9,441.033,156.907Z" transform="translate(-174.527 -33.613)" fill="#e5bbfd"/>
      <rect id="Retângulo_668" data-name="Retângulo 668" width="8.737" height="6.105" transform="matrix(0.967, 0.257, -0.257, 0.967, 248.069, 59.633)"/>
      <path id="Caminho_1520" data-name="Caminho 1520" d="M513.8,200.8c6.364,12.356-18.838,34.615-25.811,32.958s-18.218-26.538-16.115-31S507.607,188.777,513.8,200.8Z" transform="translate(-205.777 -85.077)" fill="#404884"/>
      <path id="Caminho_1521" data-name="Caminho 1521" d="M493.906,170.08c0,2.091-12.756,2.621-12.756,0V146h12.756Z" transform="translate(-209.938 -63.72)" fill="#d6a8f0"/>
      <ellipse id="Elipse_66" data-name="Elipse 66" cx="16.651" cy="26.927" rx="16.651" ry="26.927" transform="translate(256.331 42.406)" fill="#e5bbfd"/>
      <path id="Caminho_1522" data-name="Caminho 1522" d="M458,67.88a10.924,10.924,0,0,0,4.932,9.864c4.966,3.382,8.506,1.888,12.147,5.073,1.922,1.922,6.629,5.637,6.674,11.375,0,4.244,1.392,6.386,2.615,6.386s4.447-.846,6.522-.846c20.371,0,44.294,21.031,90.188,21.031,23.973,0,61.593-6.048,61.593-41.255,0-19.013-6.843-41.988-43.014-41.988-22.97,0-39.063,11.273-57.934,11.273-24.238,0-33.584-8.776-50.331-8.776-11.927,0-38.77,6.911-38.77,25.016,0,6.877,2.153,8.872,2.818,9.227A39.007,39.007,0,0,1,458,67.88Z" transform="translate(-197.49 -16.387)" fill="#423565"/>
      <circle id="Elipse_67" data-name="Elipse 67" cx="4.25" cy="4.25" r="4.25" transform="translate(278.297 71.458)" fill="#d6a8f0"/>
    </g>
  </g>
</svg>
