<svg xmlns="http://www.w3.org/2000/svg" width="163.162" height="71" viewBox="0 0 163.162 71">
  <g id="Grupo_3324" data-name="Grupo 3324" transform="translate(-860.957 -26)">
    <path id="Caminho_4104" data-name="Caminho 4104" d="M867.141,66.652a2.222,2.222,0,0,0,2.322-2.352,2.133,2.133,0,0,0-2.292-2.292h-1c-.331,0-.483.15-.483.482V66.2c0,.3.152.452.483.452Zm.06-8.3a2.08,2.08,0,0,0,2.081-2.292,1.988,1.988,0,0,0-2.232-2.172h-.875c-.331,0-.483.151-.483.452v3.53a.431.431,0,0,0,.483.482Zm-5.7,12.187a.567.567,0,0,1-.543-.573V50.606a.567.567,0,0,1,.543-.574h5.912c3.53,0,6.334,2.473,6.334,5.822a5.346,5.346,0,0,1-1.81,3.981c-.21.212-.18.392,0,.543a5.187,5.187,0,0,1,2.051,4.1c0,3.318-2.684,6.063-6.635,6.063Z" fill="#fff"/>
    <path id="Caminho_4105" data-name="Caminho 4105" d="M887.766,59.051c1.417,0,2.2-1.176,2.2-2.654a2.146,2.146,0,0,0-2.2-2.444h-.573c-.362,0-.513.181-.513.544v4.011c0,.392.151.543.513.543Zm3.047,11.493a.492.492,0,0,1-.513-.362l-2.323-6.666c-.15-.423-.3-.514-.543-.514h-.3c-.332,0-.453.152-.453.544v6.425a.567.567,0,0,1-.543.573h-3.65a.567.567,0,0,1-.543-.573V50.606a.567.567,0,0,1,.543-.574h5.249c4.374,0,7.028,1.87,7.028,6.184a5.783,5.783,0,0,1-2.413,5.1c-.241.18-.3.332-.091.844l2.987,7.572a.565.565,0,0,1-.544.814Z" fill="#fff"/>
    <path id="Caminho_4106" data-name="Caminho 4106" d="M910.314,56.457c-.03-.12-.09-.12-.121,0l-1.236,7.361c-.061.361.09.542.422.542h1.628c.362,0,.544-.181.484-.542ZM913,70.544a.554.554,0,0,1-.543-.482l-.3-1.811a.516.516,0,0,0-.573-.482h-2.8a.507.507,0,0,0-.544.482l-.332,1.811c-.059.361-.21.482-.572.482H903.8c-.362,0-.634-.271-.514-.755l4.435-19.274a.556.556,0,0,1,.573-.483h4.163a.58.58,0,0,1,.543.513l4.283,19.275a.546.546,0,0,1-.543.724Z" fill="#fff"/>
    <path id="Caminho_4107" data-name="Caminho 4107" d="M934.246,70.544a.566.566,0,0,1-.542-.392L929.51,58.9c-.059-.15-.15-.09-.15,0l.211,11.071a.567.567,0,0,1-.543.573H925.8a.567.567,0,0,1-.543-.573V50.606a.567.567,0,0,1,.543-.574h3.258c.3,0,.483.241.6.513l4.133,11.1c.029.09.15.12.15-.031l-.211-11.009a.593.593,0,0,1,.573-.574h3.168a.593.593,0,0,1,.572.574V69.971a.592.592,0,0,1-.572.573Z" fill="#fff"/>
    <path id="Caminho_4108" data-name="Caminho 4108" d="M954.058,56.216c0-1.207-.514-2.112-1.69-2.112h-1.116a.492.492,0,0,0-.513.514V65.959a.543.543,0,0,0,.513.573h1.116c1.176,0,1.69-.965,1.69-2.143Zm-7.512,14.328a.566.566,0,0,1-.542-.573V50.606a.567.567,0,0,1,.542-.574h6.516a5.414,5.414,0,0,1,5.731,5.55v9.442c0,3.5-2.594,5.52-5.731,5.52Z" fill="#fff"/>
    <path id="Caminho_4109" data-name="Caminho 4109" d="M973.174,66.713a1.74,1.74,0,0,0,1.75-1.72V63.637a.491.491,0,0,0-.513-.513h-.724a.542.542,0,0,1-.543-.544V60.046a.566.566,0,0,1,.543-.571H979a.565.565,0,0,1,.543.571v4.827c0,3.62-2.775,5.913-6.365,5.913-3.62,0-6.424-2.293-6.424-5.913v-9.14c0-3.619,2.834-5.943,6.455-5.943,3.649,0,6.364,2.263,6.364,5.943,0,.392-.03,1-.573,1h-3.559a.6.6,0,0,1-.543-.6c0-1.538-.663-2.262-1.72-2.262a1.672,1.672,0,0,0-1.689,1.72v9.41a1.655,1.655,0,0,0,1.689,1.72m8.149-26.344H965.31a1.064,1.064,0,0,0-1.064,1.064v39.8A1.065,1.065,0,0,0,965.31,82.3h16.013a1.065,1.065,0,0,0,1.064-1.066v-39.8a1.064,1.064,0,0,0-1.064-1.064" fill="#fff"/>
    <path id="Caminho_4110" data-name="Caminho 4110" d="M1000.66,50.816l-4.013,11.825a4.764,4.764,0,0,0-.211,1.538V69.97a.593.593,0,0,1-.573.574h-3.589a.567.567,0,0,1-.543-.574V64.209a4.814,4.814,0,0,0-.212-1.538l-3.951-11.885a.532.532,0,0,1,.513-.754h3.65a.641.641,0,0,1,.6.513l1.569,5.972c.182.664.3.634.483,0l1.659-6c.09-.3.242-.482.724-.482h3.348a.565.565,0,0,1,.544.784M1002.1,35.04H986.085a1.064,1.064,0,0,0-1.064,1.064V95.936A1.064,1.064,0,0,0,986.085,97H1002.1a1.064,1.064,0,0,0,1.064-1.064V36.1a1.064,1.064,0,0,0-1.064-1.064" fill="#fff"/>
    <path id="Caminho_4111" data-name="Caminho 4111" d="M1021.442,69.971a.593.593,0,0,1-.573.573h-3.439a.567.567,0,0,1-.542-.573V58.087c0-.152-.121-.152-.182,0l-1.3,3.86c-.182.6-.514.663-.694.061l-1.3-3.921c-.06-.152-.211-.152-.211,0V69.971a.594.594,0,0,1-.573.573H1009.2a.567.567,0,0,1-.543-.573V50.606a.567.567,0,0,1,.543-.574h3.74c.211,0,.452.121.573.513l1.328,4.826a.2.2,0,0,0,.391,0l1.419-4.826c.12-.332.21-.513.783-.513h3.439a.593.593,0,0,1,.573.574ZM1023.054,26h-16.013a1.064,1.064,0,0,0-1.064,1.064V90.156a1.064,1.064,0,0,0,1.064,1.064h16.013a1.064,1.064,0,0,0,1.065-1.064V27.064A1.064,1.064,0,0,0,1023.054,26" fill="#fff"/>
  </g>
</svg>
