<svg xmlns="http://www.w3.org/2000/svg" width="1065.25" height="150.609" viewBox="0 0 1065.25 150.609">
  <g id="Grupo_3312" data-name="Grupo 3312" transform="translate(-420.506 -409.142)">
    <path id="Caminho_4121" data-name="Caminho 4121" d="M25.18-10.232c-4.36,0-6.5-2.224-6.762-5.338a111.319,111.319,0,0,1,0-13.346c.267-3.381,2.4-5.338,6.762-5.338,4.271,0,6.5,2.4,6.673,5.338a111.319,111.319,0,0,1,0,13.346C31.675-12.634,29.451-10.232,25.18-10.232ZM26.514.979c9.342,0,16.193-7.207,16.905-16.549a111.319,111.319,0,0,0,0-13.346c-.712-9.342-7.563-16.549-16.905-16.549A12.079,12.079,0,0,0,21.176-44.4c-1.335.534-2.669.089-2.669-1.868V-61.393a1.785,1.785,0,0,0-1.779-1.779H8.72A1.785,1.785,0,0,0,6.94-61.393V-1.779A1.785,1.785,0,0,0,8.72,0h4.449a1.7,1.7,0,0,0,1.246-.623,3.379,3.379,0,0,1,2.224-1.424C19.219-2.046,19.93.979,26.514.979ZM82.035-29.9a1.785,1.785,0,0,0,1.779,1.779h8.008A1.785,1.785,0,0,0,93.6-29.9c0-9.342-6.673-15.571-16.015-15.571-6.584,0-7.652,3.025-10.41,3.025a2.737,2.737,0,0,1-2.046-1.068,3.254,3.254,0,0,0-2.224-.979H58.456a1.785,1.785,0,0,0-1.779,1.779V-1.779A1.785,1.785,0,0,0,58.456,0h8.008a1.785,1.785,0,0,0,1.779-1.779V-29.095c0-3.826,3.381-5.338,7.118-5.338C79.187-34.433,82.035-32.832,82.035-29.9Zm46.8,11.745a.841.841,0,0,1,.89.89v2.135c0,4.627-3.915,6.139-8.986,6.139-3.2,0-5.872-1.424-5.872-4.716a4.274,4.274,0,0,1,4.538-4.449Zm-6.406-17.172c3.915,0,6.851,1.779,6.851,5.427v1.424a.841.841,0,0,1-.89.89h-9.075c-10.232,0-15.3,7.741-15.3,13.88,0,9.342,6.406,14.681,16.727,14.681,6.584,0,9.075-3.381,10.677-3.381,1.157,0,1.246,1.068,1.779,1.779A1.443,1.443,0,0,0,134.441,0h4.449a1.785,1.785,0,0,0,1.779-1.779V-29.362c0-10.321-7.029-16.1-17.795-16.1-10.677,0-17.172,6.406-17.172,13.435a1.785,1.785,0,0,0,1.779,1.779h6.406c1.6,0,2.4-.178,2.4-1.691C116.29-34.789,120.561-35.323,122.429-35.323Zm40.839-7.029a2.554,2.554,0,0,1-1.957-1.068,2.455,2.455,0,0,0-2.046-1.068h-4.449a1.785,1.785,0,0,0-1.779,1.779V-1.779A1.785,1.785,0,0,0,154.816,0h8.008A1.785,1.785,0,0,0,164.6-1.779V-29.362c0-2.669,2.491-4.894,6.673-4.894,4.271,0,6.673,2.313,6.673,5.25V-1.779A1.785,1.785,0,0,0,179.729,0h8.008a1.785,1.785,0,0,0,1.779-1.779V-28.917a16.223,16.223,0,0,0-16.46-16.549C167.717-45.466,165.849-42.352,163.269-42.352Zm56.143,32.12c-4.271,0-6.5-2.4-6.673-5.338a111.319,111.319,0,0,1,0-13.346c.178-2.936,2.4-5.338,6.673-5.338,4.36,0,6.5,1.957,6.762,5.338a111.319,111.319,0,0,1,0,13.346C225.907-12.456,223.771-10.232,219.412-10.232ZM218.077.979c6.584,0,7.3-3.025,9.876-3.025a3.379,3.379,0,0,1,2.224,1.424A1.7,1.7,0,0,0,231.423,0h4.449a1.785,1.785,0,0,0,1.779-1.779V-61.393a1.785,1.785,0,0,0-1.779-1.779h-8.008a1.785,1.785,0,0,0-1.779,1.779v15.126c0,1.957-1.335,2.4-2.669,1.868a12.079,12.079,0,0,0-5.338-1.068c-9.342,0-16.193,7.207-16.905,16.549a111.319,111.319,0,0,0,0,13.346C201.884-6.228,208.735.979,218.077.979Zm59.168-62.727a1.463,1.463,0,0,0-1.424-1.424h-9.609a1.463,1.463,0,0,0-1.424,1.424v9.609a1.405,1.405,0,0,0,1.424,1.424h9.609a1.405,1.405,0,0,0,1.424-1.424Zm-12.99,28.561a.841.841,0,0,1,.89.89v19.841a.841.841,0,0,1-.89.89h-9.787a1.785,1.785,0,0,0-1.779,1.779v8.008A1.785,1.785,0,0,0,254.468,0h32.921a1.785,1.785,0,0,0,1.78-1.779V-9.787a1.785,1.785,0,0,0-1.78-1.779H277.6a.841.841,0,0,1-.89-.89V-43.064a1.463,1.463,0,0,0-1.424-1.424h-19.93a1.785,1.785,0,0,0-1.779,1.779v7.741a1.785,1.785,0,0,0,1.779,1.779Zm45.822-9.164a2.554,2.554,0,0,1-1.957-1.068,2.455,2.455,0,0,0-2.046-1.068h-4.449a1.785,1.785,0,0,0-1.779,1.779V-1.779A1.785,1.785,0,0,0,301.624,0h8.008a1.785,1.785,0,0,0,1.78-1.779V-29.362c0-2.669,2.491-4.894,6.673-4.894,4.271,0,6.673,2.313,6.673,5.25V-1.779A1.785,1.785,0,0,0,326.537,0h8.008a1.785,1.785,0,0,0,1.779-1.779V-28.917a16.223,16.223,0,0,0-16.46-16.549C314.526-45.466,312.657-42.352,310.077-42.352Zm69.044-2.135a1.7,1.7,0,0,0-1.246.623,3.379,3.379,0,0,1-2.224,1.424c-2.58,0-3.292-3.025-9.876-3.025-9.342,0-16.193,7.207-16.905,16.549a111.326,111.326,0,0,0,0,13.346C349.582-6.228,356.433.979,365.775.979a13.5,13.5,0,0,0,5.338-1.068c1.691-.623,2.669.089,2.669,1.868v.89c0,3.915-3.2,5.872-6.5,5.872-3.559,0-5.783-1.691-6.228-3.826-.267-1.246-.178-2.046-2.313-2.046h-6.673a1.785,1.785,0,0,0-1.779,1.779c0,8.631,8.1,14.681,17.528,14.681,10.054,0,17.528-7.474,17.528-16.46V-42.708a1.785,1.785,0,0,0-1.78-1.779ZM367.11-34.255c4.36,0,6.5,1.957,6.762,5.338a111.313,111.313,0,0,1,0,13.346c-.267,3.114-2.4,5.338-6.762,5.338-4.271,0-6.5-2.4-6.673-5.338a111.326,111.326,0,0,1,0-13.346C360.615-31.853,362.839-34.255,367.11-34.255Zm98.495,0c4.271,0,6.5,2.4,6.673,5.338a111.313,111.313,0,0,1,0,13.346c-.178,2.936-2.4,5.338-6.673,5.338-4.36,0-6.5-1.957-6.762-5.338a111.326,111.326,0,0,1,0-13.346C459.109-32.031,461.245-34.255,465.6-34.255Zm1.335-11.211c-6.584,0-7.3,3.025-9.876,3.025a3.379,3.379,0,0,1-2.224-1.424,1.7,1.7,0,0,0-1.246-.623h-4.449a1.785,1.785,0,0,0-1.779,1.779V16.015a1.785,1.785,0,0,0,1.779,1.779h8.008a1.785,1.785,0,0,0,1.78-1.779V1.779c0-1.957,1.335-2.4,2.669-1.868A12.079,12.079,0,0,0,466.939.979c9.342,0,16.193-7.207,16.905-16.549a111.313,111.313,0,0,0,0-13.346C483.133-38.259,476.282-45.466,466.939-45.466Zm53.385,27.315a.841.841,0,0,1,.89.89v2.135c0,4.627-3.915,6.139-8.986,6.139-3.2,0-5.872-1.424-5.872-4.716a4.274,4.274,0,0,1,4.538-4.449Zm-6.406-17.172c3.915,0,6.851,1.779,6.851,5.427v1.424a.841.841,0,0,1-.89.89H510.8c-10.232,0-15.3,7.741-15.3,13.88C495.5-4.36,501.906.979,512.227.979,518.812.979,521.3-2.4,522.9-2.4c1.157,0,1.246,1.068,1.779,1.779A1.443,1.443,0,0,0,525.93,0h4.449a1.785,1.785,0,0,0,1.779-1.779V-29.362c0-10.321-7.029-16.1-17.795-16.1-10.677,0-17.172,6.406-17.172,13.435a1.785,1.785,0,0,0,1.78,1.779h6.406c1.6,0,2.4-.178,2.4-1.691C507.779-34.789,512.049-35.323,513.918-35.323ZM571.4-29.9a1.785,1.785,0,0,0,1.78,1.779h8.008a1.785,1.785,0,0,0,1.779-1.779c0-9.342-6.673-15.571-16.015-15.571-6.584,0-7.652,3.025-10.41,3.025a2.737,2.737,0,0,1-2.046-1.068,3.254,3.254,0,0,0-2.224-.979h-4.449a1.785,1.785,0,0,0-1.779,1.779V-1.779A1.785,1.785,0,0,0,547.817,0h8.008A1.785,1.785,0,0,0,557.6-1.779V-29.095c0-3.826,3.381-5.338,7.118-5.338C568.548-34.433,571.4-32.832,571.4-29.9Zm46.8,11.745a.841.841,0,0,1,.89.89v2.135c0,4.627-3.915,6.139-8.986,6.139-3.2,0-5.872-1.424-5.872-4.716a4.274,4.274,0,0,1,4.538-4.449ZM611.79-35.323c3.915,0,6.851,1.779,6.851,5.427v1.424a.841.841,0,0,1-.89.89h-9.075c-10.232,0-15.3,7.741-15.3,13.88C593.372-4.36,599.779.979,610.1.979c6.584,0,9.075-3.381,10.677-3.381,1.157,0,1.246,1.068,1.779,1.779A1.443,1.443,0,0,0,623.8,0h4.449a1.785,1.785,0,0,0,1.779-1.779V-29.362c0-10.321-7.029-16.1-17.795-16.1-10.677,0-17.172,6.406-17.172,13.435a1.785,1.785,0,0,0,1.779,1.779h6.406c1.6,0,2.4-.178,2.4-1.691C605.651-34.789,609.922-35.323,611.79-35.323Zm78.832,20.731c0,11.211,9.253,15.571,19.041,15.571,10.143,0,18.863-5.694,18.863-14.5,0-12.19-11.033-13.257-18.863-14.681-3.648-.623-7.118-1.157-7.118-3.826,0-2.491,3.114-3.648,7.118-3.648,3.292,0,6.673,1.157,7.118,4.093.267,1.868,1.157,2.224,2.046,2.224H725.5c.979,0,1.779-.534,1.779-2.224,0-9.164-8.72-13.88-17.617-13.88-8.631,0-17.884,5.516-17.884,13.435,0,10.41,10.588,13.435,17.884,14.236,4.093.445,8.186,1.068,8.186,4.093,0,2.758-3.381,4.182-8.186,4.182-4.093,0-7.474-1.157-7.83-4.627-.178-1.513-.534-2.224-2.669-2.224H692.4A1.785,1.785,0,0,0,690.622-14.592Zm68.244-18.062a.841.841,0,0,1,.89-.89h15.126a1.785,1.785,0,0,0,1.779-1.779v-7.118a1.785,1.785,0,0,0-1.779-1.779H759.755a.841.841,0,0,1-.89-.89V-58.723a1.785,1.785,0,0,0-1.779-1.779h-8.008a1.785,1.785,0,0,0-1.78,1.779V-45.11a.841.841,0,0,1-.89.89h-8.72a1.785,1.785,0,0,0-1.779,1.779v7.118a1.785,1.785,0,0,0,1.779,1.779h8.72a.841.841,0,0,1,.89.89v17.706C747.3-5.694,754.95.979,764.2.979s16.905-6.851,16.905-16.1a1.785,1.785,0,0,0-1.779-1.779h-8.008a1.785,1.785,0,0,0-1.779,1.779c0,2.936-2.4,4.538-5.339,4.538s-5.339-1.6-5.339-4.538Zm55.075,14.5a.841.841,0,0,1,.89.89v2.135c0,4.627-3.915,6.139-8.986,6.139-3.2,0-5.872-1.424-5.872-4.716a4.274,4.274,0,0,1,4.538-4.449Zm-6.406-17.172c3.915,0,6.851,1.779,6.851,5.427v1.424a.841.841,0,0,1-.89.89H804.42c-10.232,0-15.3,7.741-15.3,13.88,0,9.342,6.406,14.681,16.727,14.681,6.584,0,9.075-3.381,10.677-3.381,1.157,0,1.246,1.068,1.779,1.779A1.443,1.443,0,0,0,819.546,0h4.449a1.785,1.785,0,0,0,1.779-1.779V-29.362c0-10.321-7.029-16.1-17.795-16.1-10.677,0-17.172,6.406-17.172,13.435a1.785,1.785,0,0,0,1.779,1.779h6.406c1.6,0,2.4-.178,2.4-1.691C801.4-34.789,805.666-35.323,807.534-35.323ZM865.012-29.9a1.785,1.785,0,0,0,1.78,1.779H874.8a1.785,1.785,0,0,0,1.779-1.779c0-9.342-6.673-15.571-16.015-15.571-6.584,0-7.652,3.025-10.41,3.025a2.737,2.737,0,0,1-2.046-1.068,3.254,3.254,0,0,0-2.224-.979h-4.449a1.785,1.785,0,0,0-1.78,1.779V-1.779A1.785,1.785,0,0,0,841.434,0h8.008a1.785,1.785,0,0,0,1.779-1.779V-29.095c0-3.826,3.381-5.338,7.118-5.338C862.165-34.433,865.012-32.832,865.012-29.9Zm40.661-2.758a.841.841,0,0,1,.89-.89h15.126a1.785,1.785,0,0,0,1.779-1.779v-7.118a1.785,1.785,0,0,0-1.779-1.779H906.563a.841.841,0,0,1-.89-.89V-58.723a1.785,1.785,0,0,0-1.78-1.779h-8.008a1.785,1.785,0,0,0-1.78,1.779V-45.11a.841.841,0,0,1-.89.89H884.5a1.785,1.785,0,0,0-1.779,1.779v7.118a1.785,1.785,0,0,0,1.779,1.779h8.72a.841.841,0,0,1,.89.89v17.706c0,9.253,7.652,15.926,16.905,15.926s16.905-6.851,16.905-16.1a1.785,1.785,0,0,0-1.779-1.779H918.13a1.785,1.785,0,0,0-1.779,1.779c0,2.936-2.4,4.538-5.339,4.538s-5.338-1.6-5.338-4.538ZM962.261-1.779a2.712,2.712,0,0,1,1.957.89,2.612,2.612,0,0,0,2.046.89h4.449a1.785,1.785,0,0,0,1.78-1.779V-42.708a1.785,1.785,0,0,0-1.78-1.779h-8.008a1.785,1.785,0,0,0-1.779,1.779v27.582c0,2.669-2.491,4.894-6.673,4.894-4.271,0-6.673-2.313-6.673-5.25V-42.708a1.785,1.785,0,0,0-1.779-1.779h-8.008a1.785,1.785,0,0,0-1.78,1.779v27.137A16.6,16.6,0,0,0,952.919.979C958.258.979,959.681-1.779,962.261-1.779Zm41.64-32.476c4.271,0,6.5,2.4,6.673,5.338a111.326,111.326,0,0,1,0,13.346c-.178,2.936-2.4,5.338-6.673,5.338-4.36,0-6.5-1.957-6.762-5.338a111.3,111.3,0,0,1,0-13.346C997.406-32.031,999.542-34.255,1003.9-34.255Zm1.335-11.211c-6.584,0-7.3,3.025-9.876,3.025a3.379,3.379,0,0,1-2.224-1.424,1.7,1.7,0,0,0-1.246-.623h-4.449a1.785,1.785,0,0,0-1.78,1.779V16.015a1.785,1.785,0,0,0,1.78,1.779h8.008a1.785,1.785,0,0,0,1.779-1.779V1.779c0-1.957,1.335-2.4,2.669-1.868a12.079,12.079,0,0,0,5.339,1.068c9.342,0,16.193-7.207,16.905-16.549a111.326,111.326,0,0,0,0-13.346C1021.43-38.259,1014.579-45.466,1005.236-45.466Zm27.938,30.874c0,11.211,9.253,15.571,19.041,15.571,10.143,0,18.863-5.694,18.863-14.5,0-12.19-11.033-13.257-18.863-14.681-3.648-.623-7.118-1.157-7.118-3.826,0-2.491,3.114-3.648,7.118-3.648,3.292,0,6.673,1.157,7.118,4.093.267,1.868,1.157,2.224,2.046,2.224h6.673c.979,0,1.779-.534,1.779-2.224,0-9.164-8.719-13.88-17.617-13.88-8.63,0-17.884,5.516-17.884,13.435,0,10.41,10.588,13.435,17.884,14.236,4.093.445,8.186,1.068,8.186,4.093,0,2.758-3.381,4.182-8.186,4.182-4.093,0-7.474-1.157-7.83-4.627-.178-1.513-.534-2.224-2.669-2.224h-6.762A1.785,1.785,0,0,0,1033.174-14.592Z" transform="translate(414.678 540.621)" fill="#0103a1"/>
    <path id="Caminho_4122" data-name="Caminho 4122" d="M15.818-4.519A5.882,5.882,0,0,1,9.6-10.169a61.578,61.578,0,0,1,0-7.909,5.882,5.882,0,0,1,6.214-5.649c3.5,0,5.819,2.09,5.819,4.745a.968.968,0,0,0,1.073.9h3.051a1,1,0,0,0,.96-1.13c0-5.48-4.576-9.6-10.9-9.6-6.779,0-10.847,4.8-11.3,10.734a61.578,61.578,0,0,0,0,7.909C4.971-4.237,9.039.565,15.818.565c6.327,0,10.9-4.124,10.9-9.6a1.133,1.133,0,0,0-1.13-1.13H22.654a.945.945,0,0,0-1.073.96C21.58-6.553,19.264-4.519,15.818-4.519ZM46.607-28.811A11.223,11.223,0,0,0,35.026-18.078a61.578,61.578,0,0,0,0,7.909A11.223,11.223,0,0,0,46.607.565,11.223,11.223,0,0,0,58.188-10.169a61.578,61.578,0,0,0,0-7.909A11.223,11.223,0,0,0,46.607-28.811Zm0,24.292a6.149,6.149,0,0,1-6.5-5.649,61.578,61.578,0,0,1,0-7.909,6.149,6.149,0,0,1,6.5-5.649,6.149,6.149,0,0,1,6.5,5.649,61.578,61.578,0,0,1,0,7.909A6.149,6.149,0,0,1,46.607-4.519ZM77.113-26.778a.781.781,0,0,1-.621.339.749.749,0,0,1-.565-.339,4.737,4.737,0,0,0-4.011-2.034c-2.655,0-3.333,1.412-3.955,1.412-.4,0-.508-.169-.734-.452a1.079,1.079,0,0,0-.791-.4H64.515a1.133,1.133,0,0,0-1.13,1.13V-1.13A1.133,1.133,0,0,0,64.515,0H67.34a1.133,1.133,0,0,0,1.13-1.13v-19.6a2.7,2.7,0,0,1,2.655-2.712,2.653,2.653,0,0,1,2.6,2.712v19.6A1.133,1.133,0,0,0,74.853,0h2.825a1.133,1.133,0,0,0,1.13-1.13v-19.6a2.7,2.7,0,0,1,2.655-2.712,2.653,2.653,0,0,1,2.6,2.712v19.6A1.133,1.133,0,0,0,85.192,0h2.825a1.133,1.133,0,0,0,1.13-1.13v-19.6c0-3.277-1.13-8.079-7.062-8.079A6.027,6.027,0,0,0,77.113-26.778ZM111.4-1.3a2.145,2.145,0,0,1,1.412.9,1.079,1.079,0,0,0,.791.4h2.486a1.133,1.133,0,0,0,1.13-1.13V-27.117a1.133,1.133,0,0,0-1.13-1.13h-2.825a1.133,1.133,0,0,0-1.13,1.13v17.23c0,3.277-2.712,5.367-6.214,5.367-3.9,0-6.214-2.373-6.214-5.649V-27.117a1.133,1.133,0,0,0-1.13-1.13H95.756a1.133,1.133,0,0,0-1.13,1.13v16.948A10.292,10.292,0,0,0,105.36.565C109.54.565,109.766-1.3,111.4-1.3ZM131.8-26.947a2.145,2.145,0,0,1-1.412-.9,1.079,1.079,0,0,0-.791-.4h-2.486a1.133,1.133,0,0,0-1.13,1.13V-1.13A1.133,1.133,0,0,0,127.109,0h2.825a1.133,1.133,0,0,0,1.13-1.13V-18.36c0-3.277,2.712-5.367,6.214-5.367s6.214,2.373,6.214,5.649V-1.13A1.133,1.133,0,0,0,144.622,0h2.825a1.133,1.133,0,0,0,1.13-1.13V-18.078a10.553,10.553,0,0,0-10.734-10.734C133.889-28.811,133.437-26.947,131.8-26.947Zm40.28-12.09a.929.929,0,0,0-.9-.9h-3.842a.929.929,0,0,0-.9.9v3.9a.892.892,0,0,0,.9.9h3.842a.892.892,0,0,0,.9-.9Zm-5.932,15.592a.534.534,0,0,1,.565.565V-5.367a.534.534,0,0,1-.565.565h-7.4a1.133,1.133,0,0,0-1.13,1.13V-1.13A1.133,1.133,0,0,0,158.746,0h20.9a1.133,1.133,0,0,0,1.13-1.13V-3.672a1.133,1.133,0,0,0-1.13-1.13h-7.175a.534.534,0,0,1-.565-.565v-21.75a1.133,1.133,0,0,0-1.13-1.13H159.311a1.133,1.133,0,0,0-1.13,1.13v2.542a1.133,1.133,0,0,0,1.13,1.13ZM198.517-4.519a6.149,6.149,0,0,1-6.5-5.649,61.578,61.578,0,0,1,0-7.909,6.149,6.149,0,0,1,6.5-5.649,6.149,6.149,0,0,1,6.5,5.649,61.578,61.578,0,0,1,0,7.909A6.149,6.149,0,0,1,198.517-4.519ZM197.952.565c4.18,0,4.689-1.864,6.327-1.864a2.145,2.145,0,0,1,1.412.9,1.079,1.079,0,0,0,.791.4H208.4a1.133,1.133,0,0,0,1.13-1.13V-38.811a1.133,1.133,0,0,0-1.13-1.13h-2.825a1.133,1.133,0,0,0-1.13,1.13v10c0,1.073-.4,1.412-1.243,1.412-1.13,0-2.655-1.412-5.254-1.412-5.932,0-10.282,4.8-10.734,10.734a61.578,61.578,0,0,0,0,7.909C187.67-4.237,192.02.565,197.952.565Zm38.133-12.993a.534.534,0,0,1,.565.565v1.808c0,3.842-1.921,5.932-7.118,5.932-3.277,0-5.028-1.638-5.028-4.406,0-2.373,1.356-3.9,4.237-3.9Zm-5.141-11.525c2.881,0,5.254,1.412,5.254,4.463v1.864a.534.534,0,0,1-.565.565h-6.892c-5.932,0-9.321,3.9-9.321,8.587,0,4.8,3.333,9.039,10.282,9.039,4.18,0,5.593-2.147,6.61-2.147.565,0,.791.734,1.13,1.186a.916.916,0,0,0,.791.4h1.921a1.133,1.133,0,0,0,1.13-1.13V-19.773c0-6.271-4.8-9.039-10.338-9.039-4.8,0-10.225,2.655-10.225,7.909a.99.99,0,0,0,1.13,1.13h2.542c.508,0,1.3,0,1.3-.96C225.69-23.445,229.08-23.953,230.944-23.953ZM260.659-4.519a6.149,6.149,0,0,1-6.5-5.649,61.578,61.578,0,0,1,0-7.909,6.149,6.149,0,0,1,6.5-5.649,6.149,6.149,0,0,1,6.5,5.649,61.573,61.573,0,0,1,0,7.909A6.149,6.149,0,0,1,260.659-4.519ZM260.094.565c4.18,0,4.689-1.864,6.327-1.864a2.145,2.145,0,0,1,1.412.9,1.079,1.079,0,0,0,.791.4h1.921a1.133,1.133,0,0,0,1.13-1.13V-38.811a1.133,1.133,0,0,0-1.13-1.13h-2.825a1.133,1.133,0,0,0-1.13,1.13v10c0,1.073-.4,1.412-1.243,1.412-1.13,0-2.655-1.412-5.254-1.412-5.932,0-10.282,4.8-10.734,10.734a61.578,61.578,0,0,0,0,7.909C249.812-4.237,254.162.565,260.094.565Zm25.93-12.485a.534.534,0,0,1,.565-.565h16.157a1.133,1.133,0,0,0,1.13-1.13v-3.9c0-7.062-4.463-11.3-11.3-11.3A11.223,11.223,0,0,0,281-18.078a61.584,61.584,0,0,0,0,7.909A11.223,11.223,0,0,0,292.578.565c5.875,0,10.282-3.559,10.96-8.474a.9.9,0,0,0-.96-1.13H299.7a1.281,1.281,0,0,0-1.3.96c-.678,2.09-2.881,3.559-5.819,3.559C288.68-4.519,286.025-6.779,286.025-11.92Zm.113-5.649a6.12,6.12,0,0,1,6.5-6.158c3.5,0,6.384,2.26,6.384,6.158a.534.534,0,0,1-.565.565H286.7A.534.534,0,0,1,286.138-17.569Zm67.735,13.05a6.149,6.149,0,0,1-6.5-5.649,61.573,61.573,0,0,1,0-7.909,6.149,6.149,0,0,1,6.5-5.649,6.149,6.149,0,0,1,6.5,5.649,61.584,61.584,0,0,1,0,7.909A6.149,6.149,0,0,1,353.873-4.519ZM353.308.565c4.18,0,4.689-1.864,6.327-1.864a2.145,2.145,0,0,1,1.412.9,1.079,1.079,0,0,0,.791.4h1.921a1.133,1.133,0,0,0,1.13-1.13V-38.811a1.133,1.133,0,0,0-1.13-1.13h-2.825a1.133,1.133,0,0,0-1.13,1.13v10c0,1.073-.4,1.412-1.243,1.412-1.13,0-2.655-1.412-5.254-1.412-5.932,0-10.282,4.8-10.734,10.734a61.573,61.573,0,0,0,0,7.909C343.026-4.237,347.376.565,353.308.565Zm25.93-12.485a.534.534,0,0,1,.565-.565H395.96a1.133,1.133,0,0,0,1.13-1.13v-3.9c0-7.062-4.463-11.3-11.3-11.3A11.223,11.223,0,0,0,374.21-18.078a61.584,61.584,0,0,0,0,7.909A11.223,11.223,0,0,0,385.791.565c5.875,0,10.282-3.559,10.96-8.474a.9.9,0,0,0-.96-1.13h-2.881a1.281,1.281,0,0,0-1.3.96c-.678,2.09-2.881,3.559-5.819,3.559C381.893-4.519,379.238-6.779,379.238-11.92Zm.113-5.649a6.12,6.12,0,0,1,6.5-6.158c3.5,0,6.384,2.26,6.384,6.158a.534.534,0,0,1-.565.565H379.916A.534.534,0,0,1,379.351-17.569Z" transform="translate(745.441 449.083)" fill="#0103a1"/>
    <g id="Grupo_3310" data-name="Grupo 3310">
      <circle id="Elipse_263" data-name="Elipse 263" cx="7.1" cy="7.1" r="7.1" transform="translate(468.512 425.663)" fill="#ff0"/>
      <circle id="Elipse_264" data-name="Elipse 264" cx="7.1" cy="7.1" r="7.1" transform="translate(444.509 425.663)" fill="#ff0"/>
      <circle id="Elipse_265" data-name="Elipse 265" cx="7.1" cy="7.1" r="7.1" transform="translate(420.506 425.663)" fill="#ff0"/>
      <circle id="Elipse_266" data-name="Elipse 266" cx="7.1" cy="7.1" r="7.1" transform="translate(492.515 425.663)" fill="#ff0"/>
      <circle id="Elipse_267" data-name="Elipse 267" cx="7.1" cy="7.1" r="7.1" transform="translate(516.518 425.663)" fill="#ff0"/>
      <circle id="Elipse_268" data-name="Elipse 268" cx="7.1" cy="7.1" r="7.1" transform="translate(540.522 425.663)" fill="#ff0"/>
      <circle id="Elipse_269" data-name="Elipse 269" cx="7.1" cy="7.1" r="7.1" transform="translate(564.525 425.663)" fill="#ff0"/>
      <circle id="Elipse_270" data-name="Elipse 270" cx="7.1" cy="7.1" r="7.1" transform="translate(588.528 425.663)" fill="#ff0"/>
      <circle id="Elipse_271" data-name="Elipse 271" cx="7.1" cy="7.1" r="7.1" transform="translate(612.531 425.663)" fill="#ff0"/>
      <circle id="Elipse_272" data-name="Elipse 272" cx="7.1" cy="7.1" r="7.1" transform="translate(636.535 425.663)" fill="#ff0"/>
      <circle id="Elipse_273" data-name="Elipse 273" cx="7.1" cy="7.1" r="7.1" transform="translate(660.538 425.663)" fill="#ff0"/>
      <circle id="Elipse_274" data-name="Elipse 274" cx="7.1" cy="7.1" r="7.1" transform="translate(684.541 425.663)" fill="#ff0"/>
      <circle id="Elipse_275" data-name="Elipse 275" cx="7.1" cy="7.1" r="7.1" transform="translate(708.544 425.663)" fill="#ff0"/>
    </g>
    <g id="Grupo_3311" data-name="Grupo 3311">
      <circle id="Elipse_276" data-name="Elipse 276" cx="7.1" cy="7.1" r="7.1" transform="translate(1220.812 425.663)" fill="#ff0"/>
      <circle id="Elipse_277" data-name="Elipse 277" cx="7.1" cy="7.1" r="7.1" transform="translate(1196.808 425.663)" fill="#ff0"/>
      <circle id="Elipse_278" data-name="Elipse 278" cx="7.1" cy="7.1" r="7.1" transform="translate(1172.805 425.663)" fill="#ff0"/>
      <circle id="Elipse_279" data-name="Elipse 279" cx="7.1" cy="7.1" r="7.1" transform="translate(1244.815 425.663)" fill="#ff0"/>
      <circle id="Elipse_280" data-name="Elipse 280" cx="7.1" cy="7.1" r="7.1" transform="translate(1268.818 425.663)" fill="#ff0"/>
      <circle id="Elipse_281" data-name="Elipse 281" cx="7.1" cy="7.1" r="7.1" transform="translate(1292.821 425.663)" fill="#ff0"/>
      <circle id="Elipse_282" data-name="Elipse 282" cx="7.1" cy="7.1" r="7.1" transform="translate(1316.825 425.663)" fill="#ff0"/>
      <circle id="Elipse_283" data-name="Elipse 283" cx="7.1" cy="7.1" r="7.1" transform="translate(1340.828 425.663)" fill="#ff0"/>
      <circle id="Elipse_284" data-name="Elipse 284" cx="7.1" cy="7.1" r="7.1" transform="translate(1364.831 425.663)" fill="#ff0"/>
      <circle id="Elipse_285" data-name="Elipse 285" cx="7.1" cy="7.1" r="7.1" transform="translate(1388.834 425.663)" fill="#ff0"/>
      <circle id="Elipse_286" data-name="Elipse 286" cx="7.1" cy="7.1" r="7.1" transform="translate(1412.838 425.663)" fill="#ff0"/>
      <circle id="Elipse_287" data-name="Elipse 287" cx="7.1" cy="7.1" r="7.1" transform="translate(1436.841 425.663)" fill="#ff0"/>
      <circle id="Elipse_288" data-name="Elipse 288" cx="7.1" cy="7.1" r="7.1" transform="translate(1460.844 425.663)" fill="#ff0"/>
    </g>
  </g>
</svg>
