<svg xmlns="http://www.w3.org/2000/svg" width="590.568" height="525.74" viewBox="0 0 590.568 525.74">
  <g id="Grupo_323" data-name="Grupo 323" transform="translate(-289.716 -112.13)">
    <g id="Grupo_195" data-name="Grupo 195">
      <rect id="Retângulo_308" data-name="Retângulo 308" width="257.631" height="0.65" transform="translate(386.719 565.559)" fill="#393838"/>
    </g>
    <g id="Grupo_204" data-name="Grupo 204">
      <g id="Grupo_196" data-name="Grupo 196">
        <rect id="Retângulo_309" data-name="Retângulo 309" width="238.987" height="56.767" transform="translate(324.267 477.977)" fill="#c38f5a"/>
      </g>
      <g id="Grupo_197" data-name="Grupo 197">
        <path id="Caminho_159" data-name="Caminho 159" d="M567.27,538.547H320.251V474.174H567.27ZM320.9,537.9H566.62V474.824H320.9Z" fill="#393838"/>
      </g>
      <g id="Grupo_200" data-name="Grupo 200">
        <g id="Grupo_198" data-name="Grupo 198">
          <path id="Caminho_160" data-name="Caminho 160" d="M329.523,566.209h-6.131l2.836-28.312h13.22Zm-5.412-.65h4.951l9.47-27.012H326.816Z" fill="#393838"/>
        </g>
        <g id="Grupo_199" data-name="Grupo 199">
          <path id="Caminho_161" data-name="Caminho 161" d="M326.522,538.222H338.99l-2.387,6.81-10.492-2.7Z" fill="#39332e"/>
        </g>
      </g>
      <g id="Grupo_203" data-name="Grupo 203">
        <g id="Grupo_201" data-name="Grupo 201">
          <path id="Caminho_162" data-name="Caminho 162" d="M563.613,566.209h-6.13L547.558,537.9h13.219Zm-5.669-.65H562.9l-2.705-27.012H548.475Z" fill="#393838"/>
        </g>
        <g id="Grupo_202" data-name="Grupo 202">
          <path id="Caminho_163" data-name="Caminho 163" d="M560.484,538.222H548.016l2.387,6.81,10.492-2.7Z" fill="#39332e"/>
        </g>
      </g>
    </g>
    <g id="Grupo_252" data-name="Grupo 252">
      <g id="Grupo_205" data-name="Grupo 205">
        <path id="Caminho_164" data-name="Caminho 164" d="M507.468,163.719s-15.423-29.18-26.151-24.694c-10.447,4.369,4.749,24.694,23.364,24.694Z" fill="#6e8839"/>
      </g>
      <g id="Grupo_206" data-name="Grupo 206">
        <path id="Caminho_165" data-name="Caminho 165" d="M507.468,163.719s-14.183-28.113-5.445-45.968,29.632,9.362,9.117,45.968Z" fill="#6e8839"/>
      </g>
      <g id="Grupo_207" data-name="Grupo 207">
        <rect id="Retângulo_310" data-name="Retângulo 310" width="258.535" height="3.637" transform="translate(314.493 200.324)" fill="#c38f5a"/>
      </g>
      <g id="Grupo_208" data-name="Grupo 208">
        <rect id="Retângulo_311" data-name="Retângulo 311" width="258.535" height="3.637" transform="translate(314.493 282.282)" fill="#c38f5a"/>
      </g>
      <g id="Grupo_209" data-name="Grupo 209">
        <rect id="Retângulo_312" data-name="Retângulo 312" width="258.535" height="3.637" transform="translate(314.493 364.24)" fill="#c38f5a"/>
      </g>
      <g id="Grupo_212" data-name="Grupo 212">
        <g id="Grupo_210" data-name="Grupo 210">
          <path id="Caminho_166" data-name="Caminho 166" d="M338.231,211.128H327.058l-2.791-7.492h13.964Zm-10.721-.649h10.071v-6.193H325.2Z" fill="#393838"/>
        </g>
        <g id="Grupo_211" data-name="Grupo 211">
          <path id="Caminho_167" data-name="Caminho 167" d="M325.486,205.974l12.42,1.408v-3.421h-13.17Z" fill="#39332e"/>
        </g>
      </g>
      <g id="Grupo_215" data-name="Grupo 215">
        <g id="Grupo_213" data-name="Grupo 213">
          <path id="Caminho_168" data-name="Caminho 168" d="M560.229,211.128H549.057v-7.492h13.962Zm-10.522-.649h10.07l2.307-6.193H549.707Z" fill="#393838"/>
        </g>
        <g id="Grupo_214" data-name="Grupo 214">
          <path id="Caminho_169" data-name="Caminho 169" d="M561.8,205.974l-12.42,1.408v-3.421h13.17Z" fill="#39332e"/>
        </g>
      </g>
      <g id="Grupo_218" data-name="Grupo 218">
        <g id="Grupo_216" data-name="Grupo 216">
          <path id="Caminho_170" data-name="Caminho 170" d="M338.231,293.087H327.058l-2.791-7.493h13.964Zm-10.721-.65h10.071v-6.193H325.2Z" fill="#393838"/>
        </g>
        <g id="Grupo_217" data-name="Grupo 217">
          <path id="Caminho_171" data-name="Caminho 171" d="M325.486,287.932l12.42,1.408v-3.421h-13.17Z" fill="#39332e"/>
        </g>
      </g>
      <g id="Grupo_221" data-name="Grupo 221">
        <g id="Grupo_219" data-name="Grupo 219">
          <path id="Caminho_172" data-name="Caminho 172" d="M560.229,293.087H549.057v-7.493h13.962Zm-10.522-.65h10.07l2.307-6.193H549.707Z" fill="#393838"/>
        </g>
        <g id="Grupo_220" data-name="Grupo 220">
          <path id="Caminho_173" data-name="Caminho 173" d="M561.8,287.932l-12.42,1.408v-3.421h13.17Z" fill="#39332e"/>
        </g>
      </g>
      <g id="Grupo_224" data-name="Grupo 224">
        <g id="Grupo_222" data-name="Grupo 222">
          <path id="Caminho_174" data-name="Caminho 174" d="M338.231,375.044H327.058l-2.791-7.492h13.964Zm-10.721-.649h10.071V368.2H325.2Z" fill="#393838"/>
        </g>
        <g id="Grupo_223" data-name="Grupo 223">
          <path id="Caminho_175" data-name="Caminho 175" d="M325.486,369.891l12.42,1.408v-3.421h-13.17Z" fill="#39332e"/>
        </g>
      </g>
      <g id="Grupo_227" data-name="Grupo 227">
        <g id="Grupo_225" data-name="Grupo 225">
          <path id="Caminho_176" data-name="Caminho 176" d="M560.229,375.044H549.057v-7.492h13.962Zm-10.522-.649h10.07l2.307-6.193H549.707Z" fill="#393838"/>
        </g>
        <g id="Grupo_226" data-name="Grupo 226">
          <path id="Caminho_177" data-name="Caminho 177" d="M561.8,369.891l-12.42,1.408v-3.421h13.17Z" fill="#39332e"/>
        </g>
      </g>
      <g id="Grupo_228" data-name="Grupo 228">
        <path id="Caminho_178" data-name="Caminho 178" d="M428.139,242.556H341.886V239.12h86.253Zm-85.6-.65h84.953V239.77H342.536Z" fill="#393838"/>
      </g>
      <g id="Grupo_229" data-name="Grupo 229">
        <rect id="Retângulo_313" data-name="Retângulo 313" width="11.777" height="6.114" transform="translate(350.062 276.168)" fill="#de3b47"/>
      </g>
      <g id="Grupo_230" data-name="Grupo 230">
        <rect id="Retângulo_314" data-name="Retângulo 314" width="11.777" height="6.114" transform="translate(407.427 276.168)" fill="#de3b47"/>
      </g>
      <g id="Grupo_231" data-name="Grupo 231">
        <rect id="Retângulo_315" data-name="Retângulo 315" width="11.777" height="28.954" transform="translate(452.54 253.328)" fill="#e7aa32"/>
      </g>
      <g id="Grupo_232" data-name="Grupo 232">
        <path id="Caminho_179" data-name="Caminho 179" d="M428.139,282.607H341.886V227.626h86.253Zm-85.6-.65h84.953V228.276H342.536Z" fill="#393838"/>
      </g>
      <g id="Grupo_233" data-name="Grupo 233">
        <path id="Caminho_180" data-name="Caminho 180" d="M478.155,282.607H438.7V239.12h39.453Zm-38.8-.65h38.153V239.77H439.352Z" fill="#393838"/>
      </g>
      <g id="Grupo_234" data-name="Grupo 234">
        <rect id="Retângulo_316" data-name="Retângulo 316" width="7.678" height="30.235" transform="translate(363.034 318.432)" fill="#e7aa32"/>
      </g>
      <g id="Grupo_235" data-name="Grupo 235">
        <path id="Caminho_181" data-name="Caminho 181" d="M372.233,350.3H361.514V316.8h10.719Zm-10.069-.65h9.419V317.454h-9.419Z" fill="#393838"/>
      </g>
      <g id="Grupo_236" data-name="Grupo 236">
        <path id="Caminho_182" data-name="Caminho 182" d="M372.233,364.565H361.514V302.534h10.719Zm-10.069-.65h9.419V303.184h-9.419Z" fill="#393838"/>
      </g>
      <g id="Grupo_237" data-name="Grupo 237">
        <path id="Caminho_183" data-name="Caminho 183" d="M383.565,326.125H372.846V316.8h10.719Zm-10.069-.65h9.419v-8.021H373.5Z" fill="#393838"/>
      </g>
      <g id="Grupo_238" data-name="Grupo 238">
        <rect id="Retângulo_317" data-name="Retângulo 317" width="10.068" height="4.335" transform="translate(373.172 327.268)" fill="#e7aa32"/>
      </g>
      <g id="Grupo_239" data-name="Grupo 239">
        <path id="Caminho_184" data-name="Caminho 184" d="M383.565,364.565H372.846V302.534h10.719Zm-10.069-.65h9.419V303.184H373.5Z" fill="#393838"/>
      </g>
      <g id="Grupo_240" data-name="Grupo 240">
        <path id="Caminho_185" data-name="Caminho 185" d="M395.026,320.493H384.308v-9.319h10.718Zm-10.068-.649h9.418v-8.02h-9.418Z" fill="#393838"/>
      </g>
      <g id="Grupo_241" data-name="Grupo 241">
        <path id="Caminho_186" data-name="Caminho 186" d="M395.026,364.565H384.308V302.534h10.718Zm-10.068-.65h9.418V303.184h-9.418Z" fill="#393838"/>
      </g>
      <g id="Grupo_242" data-name="Grupo 242">
        <path id="Caminho_187" data-name="Caminho 187" d="M462.186,364.565H400.155V353.847h62.031Zm-61.381-.65h60.731V354.5H400.8Z" fill="#393838"/>
      </g>
      <g id="Grupo_243" data-name="Grupo 243">
        <path id="Caminho_188" data-name="Caminho 188" d="M478.155,253.653H438.7V250.77h39.453Zm-38.8-.65h38.153V251.42H439.352Z" fill="#393838"/>
      </g>
      <g id="Grupo_244" data-name="Grupo 244">
        <path id="Caminho_189" data-name="Caminho 189" d="M342.211,242.231h85.6v5.318l-85.6-2.659Z" fill="#39332e"/>
      </g>
      <g id="Grupo_245" data-name="Grupo 245">
        <rect id="Retângulo_318" data-name="Retângulo 318" width="3.039" height="3.039" transform="translate(456.909 236.406)" fill="#39332e"/>
      </g>
      <g id="Grupo_246" data-name="Grupo 246">
        <path id="Caminho_190" data-name="Caminho 190" d="M359.751,364.565h-24.2v-3.247l14.224-7.113,9.394-42.145h1.669Zm-23.547-.65h22.911l1.062-51.205h-.484l-9.347,41.939-.138.069-14,7Z" fill="#393838"/>
      </g>
      <g id="Grupo_247" data-name="Grupo 247">
        <path id="Caminho_191" data-name="Caminho 191" d="M404.785,354.172l57.076,2.281v-2.281Z" fill="#39332e"/>
      </g>
      <g id="Grupo_248" data-name="Grupo 248">
        <rect id="Retângulo_319" data-name="Retângulo 319" width="2.849" height="10.134" transform="translate(451.305 344.104)" fill="#de3b47"/>
      </g>
      <g id="Grupo_249" data-name="Grupo 249">
        <path id="Caminho_192" data-name="Caminho 192" d="M466.491,354.5H404.46V343.778h62.031Zm-61.381-.65h60.731v-9.419H405.11Z" fill="#393838"/>
      </g>
      <g id="Grupo_250" data-name="Grupo 250">
        <path id="Caminho_193" data-name="Caminho 193" d="M517.424,200.648H494.217l-.088-.186c-7.907-16.812-10.638-36.5-10.665-36.7l-.05-.369h44.812l-.05.369c-.026.2-2.757,19.888-10.665,36.7Zm-22.8-.65h22.382c7.205-15.412,10.055-33.187,10.468-35.955H484.162C484.575,166.811,487.426,184.589,494.629,200Z" fill="#393838"/>
      </g>
      <g id="Grupo_251" data-name="Grupo 251">
        <path id="Caminho_194" data-name="Caminho 194" d="M515.191,163.719s-1.773,22.3-9.371,36.605h11.4c7.978-16.961,10.637-36.605,10.637-36.605Z" fill="#39332e"/>
      </g>
    </g>
    <path id="Caminho_195" data-name="Caminho 195" d="M609.024,611.9c0-.017,0-.033-.006-.05,0-.032-.01-.065-.017-.1l-.012-.052c-.01-.038-.021-.076-.035-.117l-.018-.053c-.016-.044-.035-.088-.056-.134-.008-.018-.018-.037-.027-.056-.024-.049-.05-.1-.081-.151-.01-.017-.022-.035-.033-.053-.035-.055-.072-.112-.115-.172l-.032-.042c-.049-.065-.1-.131-.16-.2l-.019-.02a9.18,9.18,0,0,0-2.842-1.963l-.078-.039c-.187-.091-.388-.184-.6-.278l-.131-.06c-.2-.09-.421-.182-.644-.274l-.173-.072c-.223-.09-.457-.181-.7-.272l-.215-.081q-.367-.137-.765-.274l-.247-.084c-.27-.092-.549-.185-.841-.277-.089-.029-.182-.058-.274-.086-.3-.094-.608-.188-.93-.283l-.282-.081c-.335-.1-.678-.193-1.037-.291l-.281-.074c-.378-.1-.763-.2-1.168-.3l-.207-.051c-.441-.109-.892-.218-1.365-.327l-.027-.006c-2.118-.489-4.567-.98-7.4-1.465l-.038-.007c-1.622-.277-3.976-.552-5.858-.824l1.074-6.684h0c22.829-112.521,21.446-257.32,21.446-257.32l-71.1,10.612c5.353,21.051,39.34,114.933,39.34,114.933-10.118,41.528-5.757,143.658-5.756,143.686-.032,1.516.335,3.235,2.014,3.835h39.646l.006-.013,0-.008.01-.031.007-.03.008-.033c0-.014,0-.031.007-.048s0-.025,0-.039,0-.043,0-.066,0-.028,0-.044S609.026,611.929,609.024,611.9Z" fill="#e19674"/>
    <path id="Caminho_196" data-name="Caminho 196" d="M546.523,473.309c9.616-33.192,23.4-108.708,30.339-129.906l-71.393-4.175s2.481,24.048,2.083,125.6c0,0-7.712,22.79-18.108,131.719h0l-1.283,7.37h0l-.333,1.912s-.057.186-.128.5c-.047.208-.1.47-.148.77-.024.149-.046.308-.065.474-.17,1.491-.085,3.54,1.406,4.46a2.867,2.867,0,0,0,.551.263h13.5s5.541-4.617.089-9.062l.46-6.684S535.258,512.194,546.523,473.309Z" fill="#e19674"/>
    <g id="Grupo_253" data-name="Grupo 253">
      <rect id="Retângulo_320" data-name="Retângulo 320" width="82.192" height="0.65" transform="translate(289.716 565.559)" fill="#393838"/>
    </g>
    <g id="Grupo_254" data-name="Grupo 254">
      <rect id="Retângulo_321" data-name="Retângulo 321" width="186.828" height="0.65" transform="translate(443.761 612.389)" fill="#393838"/>
    </g>
    <g id="Grupo_255" data-name="Grupo 255">
      <rect id="Retângulo_322" data-name="Retângulo 322" width="229.722" height="0.65" transform="translate(650.562 565.559)" fill="#393838"/>
    </g>
    <g id="Grupo_284" data-name="Grupo 284">
      <g id="Grupo_256" data-name="Grupo 256">
        <rect id="Retângulo_323" data-name="Retângulo 323" width="169.251" height="95.079" transform="translate(666.843 410.822)" fill="#c38f5a"/>
      </g>
      <g id="Grupo_257" data-name="Grupo 257">
        <path id="Caminho_197" data-name="Caminho 197" d="M836.419,406.821h-169.9V309h169.9Zm-169.251-.65h168.6V309.653h-168.6Z" fill="#393838"/>
      </g>
      <g id="Grupo_258" data-name="Grupo 258">
        <path id="Caminho_198" data-name="Caminho 198" d="M840.863,510.334H662.075V304.895H840.863Zm-178.138-.65H840.213V305.545H662.725Z" fill="#393838"/>
      </g>
      <g id="Grupo_259" data-name="Grupo 259">
        <path id="Caminho_199" data-name="Caminho 199" d="M667.009,566.209h-4.96l4.4-56.525h13.616Zm-4.258-.65h3.741l12.756-55.225h-12.2Z" fill="#393838"/>
      </g>
      <g id="Grupo_260" data-name="Grupo 260">
        <path id="Caminho_200" data-name="Caminho 200" d="M840.492,566.209h-4.96l-.058-.251-13-56.274h13.616l.023.3Zm-4.443-.65h3.741l-4.3-55.225h-12.2Z" fill="#393838"/>
      </g>
      <g id="Grupo_261" data-name="Grupo 261">
        <rect id="Retângulo_324" data-name="Retângulo 324" width="169.251" height="0.65" transform="translate(666.843 426.639)" fill="#393838"/>
      </g>
      <g id="Grupo_262" data-name="Grupo 262">
        <rect id="Retângulo_325" data-name="Retângulo 325" width="169.251" height="0.65" transform="translate(666.843 433.111)" fill="#393838"/>
      </g>
      <g id="Grupo_263" data-name="Grupo 263">
        <rect id="Retângulo_326" data-name="Retângulo 326" width="10.678" height="12.579" transform="translate(676.384 337.119)" fill="#de3b47"/>
      </g>
      <g id="Grupo_264" data-name="Grupo 264">
        <rect id="Retângulo_327" data-name="Retângulo 327" width="12.08" height="3.134" transform="translate(724.92 357.965)" fill="#de3b47"/>
      </g>
      <g id="Grupo_265" data-name="Grupo 265">
        <rect id="Retângulo_328" data-name="Retângulo 328" width="12.08" height="3.134" transform="translate(724.92 364.254)" fill="#de3b47"/>
      </g>
      <g id="Grupo_266" data-name="Grupo 266">
        <path id="Caminho_201" data-name="Caminho 201" d="M687.387,406.821H676.059v-82h11.328Zm-10.678-.65h10.028v-80.7H676.709Z" fill="#393838"/>
      </g>
      <g id="Grupo_267" data-name="Grupo 267">
        <rect id="Retângulo_329" data-name="Retângulo 329" width="10.678" height="6.289" transform="translate(687.062 333.974)" fill="#e7aa32"/>
      </g>
      <g id="Grupo_268" data-name="Grupo 268">
        <path id="Caminho_202" data-name="Caminho 202" d="M698.065,406.821H686.737v-82h11.328Zm-10.678-.65h10.028v-80.7H687.387Z" fill="#393838"/>
      </g>
      <g id="Grupo_269" data-name="Grupo 269">
        <path id="Caminho_203" data-name="Caminho 203" d="M711.708,406.821h-.274l-.047-.27-13.655-80.2,11.167-1.9,13.764,80.835-8.973,1.528Zm.274-.65h1.654l8.277-1.414L708.367,325.2l-9.885,1.683Z" fill="#393838"/>
      </g>
      <g id="Grupo_270" data-name="Grupo 270">
        <path id="Caminho_204" data-name="Caminho 204" d="M701.893,350.8l-.5-2.954,11.093-2.333.484,2.837Zm.244-2.446.283,1.664,9.8-2.168-.265-1.563Z" fill="#393838"/>
      </g>
      <g id="Grupo_271" data-name="Grupo 271">
        <path id="Caminho_205" data-name="Caminho 205" d="M737.325,406.821h-12.73v-61.25h12.73Zm-12.08-.65h11.43v-59.95h-11.43Z" fill="#393838"/>
      </g>
      <g id="Grupo_272" data-name="Grupo 272">
        <path id="Caminho_206" data-name="Caminho 206" d="M767.625,305.545h-78.3V292.816h78.3Zm-77.655-.65h77.005v-11.43H689.97Z" fill="#393838"/>
      </g>
      <g id="Grupo_273" data-name="Grupo 273">
        <path id="Caminho_207" data-name="Caminho 207" d="M665.975,519.958l12.272-3.847,1.409-6.1H666.75Z" fill="#39332e"/>
      </g>
      <g id="Grupo_274" data-name="Grupo 274">
        <path id="Caminho_208" data-name="Caminho 208" d="M836.565,519.958l-12.272-3.847-1.409-6.1H835.79Z" fill="#39332e"/>
      </g>
      <g id="Grupo_281" data-name="Grupo 281">
        <g id="Grupo_275" data-name="Grupo 275">
          <path id="Caminho_209" data-name="Caminho 209" d="M823.193,305.545H788.462l-.014-.309-2.6-54.189h39.97Zm-34.111-.65h33.492l2.557-53.2H786.524Z" fill="#393838"/>
        </g>
        <g id="Grupo_276" data-name="Grupo 276">
          <rect id="Retângulo_330" data-name="Retângulo 330" width="38.003" height="0.65" transform="translate(786.826 264.432)" fill="#393838"/>
        </g>
        <g id="Grupo_277" data-name="Grupo 277">
          <path id="Caminho_210" data-name="Caminho 210" d="M817.108,251.7h-3.891l5.248-47.892h3.563Zm-3.167-.65h2.581l4.786-46.592h-2.261Z" fill="#393838"/>
        </g>
        <g id="Grupo_278" data-name="Grupo 278">
          <path id="Caminho_211" data-name="Caminho 211" d="M813.9,251.7h-3.077V194.584H813.9Zm-2.427-.65h1.777V195.234h-1.777Z" fill="#393838"/>
        </g>
        <g id="Grupo_279" data-name="Grupo 279">
          <path id="Caminho_212" data-name="Caminho 212" d="M815.52,264.757l-6.687,40.464h14.051l1.877-39.044-.165-1.419Z" fill="#39332e"/>
        </g>
        <g id="Grupo_280" data-name="Grupo 280">
          <path id="Caminho_213" data-name="Caminho 213" d="M811.152,246.761l2.427-8.736v13.347h-2.427Z" fill="#39332e"/>
        </g>
      </g>
      <g id="Grupo_282" data-name="Grupo 282">
        <rect id="Retângulo_331" data-name="Retângulo 331" width="77.655" height="0.65" transform="translate(689.645 295.592)" fill="#393838"/>
      </g>
      <g id="Grupo_283" data-name="Grupo 283">
        <path id="Caminho_214" data-name="Caminho 214" d="M689.644,297.319H767.3v7.9h-7.919l-16.826-6.04h-52.91Z" fill="#39332e"/>
      </g>
    </g>
    <g id="Grupo_285" data-name="Grupo 285">
      <path id="Caminho_215" data-name="Caminho 215" d="M568.416,171.885s10.248,11.295,10.364,21.949l-8.2,1.075S567,175.5,568.416,171.885Z" fill="#39332e"/>
    </g>
    <g id="Grupo_286" data-name="Grupo 286">
      <path id="Caminho_216" data-name="Caminho 216" d="M505.469,341.5l1.449,123.013s-13.1,35.671-16.8,75.845l43.617,2.308s28-80.366,27.518-111.064l15.606-80.4Z" fill="#605548"/>
    </g>
    <g id="Grupo_287" data-name="Grupo 287">
      <path id="Caminho_217" data-name="Caminho 217" d="M561.256,431.606l10.652,32.911s-8.957,36.589-7.1,78.153h43.06S624.34,427.259,604.835,341.5l-41.9,10.763Z" fill="#605548"/>
    </g>
    <g id="Grupo_288" data-name="Grupo 288">
      <path id="Caminho_218" data-name="Caminho 218" d="M596.826,207.655s18.433,37.64,23.8,81.739c3.315,27.236-14.67,11.566-14.67,11.566v-7.641Z" fill="#e19674"/>
    </g>
    <g id="Grupo_289" data-name="Grupo 289">
      <path id="Caminho_219" data-name="Caminho 219" d="M515.7,217.907c2.882-11.7,8.507-16.314,14.423-19.3,19.21-9.712,48.656-4.768,48.656-4.768s15.481,1.224,20.5,20.485c0,0,14.6,97.932,5.558,127.185,0,0-8.72,9.736-41.9,10.763s-52.676-3.738-57.466-10.763C499.818,314.853,511.113,242.342,515.7,217.907Z" fill="#eccc9f"/>
    </g>
    <g id="Grupo_290" data-name="Grupo 290">
      <path id="Caminho_220" data-name="Caminho 220" d="M605.957,266.3" fill="#39332e"/>
    </g>
    <g id="Grupo_296" data-name="Grupo 296">
      <g id="Grupo_291" data-name="Grupo 291">
        <path id="Caminho_221" data-name="Caminho 221" d="M548.839,149.5l20.281.737-1.039,22.192L547.915,175Z" fill="#e19674"/>
      </g>
      <g id="Grupo_292" data-name="Grupo 292">
        <path id="Caminho_222" data-name="Caminho 222" d="M572.165,194.28c-7.789,3.848-27.521-.109-27.521-.109,2.566-15.66,3.471-21.094,3.471-21.094l20.469-9.016C567.367,181.91,572.165,194.28,572.165,194.28Z" fill="#e19674"/>
      </g>
      <g id="Grupo_293" data-name="Grupo 293">
        <path id="Caminho_223" data-name="Caminho 223" d="M551.627,149.6l17.492.639s2.749,10.34.717,18.026c-1.1,4.167-3.29,7.484-8.313,7.891a11.8,11.8,0,0,1-11.38-8.683C548.4,159.716,551.627,149.6,551.627,149.6Z" fill="#e19674"/>
      </g>
      <g id="Grupo_294" data-name="Grupo 294">
        <path id="Caminho_224" data-name="Caminho 224" d="M568.416,171.885a9.2,9.2,0,0,1-11.638,3.293s1.682,11.388,12.751,8.43A97.072,97.072,0,0,1,568.416,171.885Z" fill="#bc7b62"/>
      </g>
      <g id="Grupo_295" data-name="Grupo 295">
        <path id="Caminho_225" data-name="Caminho 225" d="M544.644,194.171s7.815,20.648,20.052,20.648,8.11-18.622,7.469-20.539A102.447,102.447,0,0,0,544.644,194.171Z" fill="#e19674"/>
      </g>
    </g>
    <g id="Grupo_297" data-name="Grupo 297">
      <path id="Caminho_226" data-name="Caminho 226" d="M561.256,431.606l8.039-36.815s.433,40-5.281,45.337Z" fill="#39332e"/>
    </g>
    <g id="Grupo_298" data-name="Grupo 298">
      <path id="Caminho_227" data-name="Caminho 227" d="M657.377,585.4l-2.714.555L581.612,228.472a1.385,1.385,0,0,1,1.08-1.635h0a1.386,1.386,0,0,1,1.634,1.08Z" fill="#3d493c"/>
    </g>
    <g id="Grupo_299" data-name="Grupo 299">
      <path id="Caminho_228" data-name="Caminho 228" d="M518.045,210.918s-31.484,76.811-18.251,96.557c13.877,20.707,60.4-5.845,84.48-43.8l-4.427-5.594s-66.407,29.7-61.438,40.591c0,0,17.961-26.541,20.033-55.865C539.344,230.032,532.309,217.779,518.045,210.918Z" fill="#e19674"/>
    </g>
    <g id="Grupo_300" data-name="Grupo 300">
      <path id="Caminho_229" data-name="Caminho 229" d="M612.766,304.862l-9.11-4.877-.36-7.649a124.7,124.7,0,0,0,13.925-3.866C622.849,286.427,612.766,304.862,612.766,304.862Z" fill="#e19674"/>
    </g>
    <g id="Grupo_301" data-name="Grupo 301">
      <path id="Caminho_230" data-name="Caminho 230" d="M530.124,198.6s15.3,22.926,6.857,55.05L511.43,228.533l6.615-17.615S521.6,201.855,530.124,198.6Z" fill="#e19674"/>
    </g>
    <g id="Grupo_302" data-name="Grupo 302">
      <path id="Caminho_231" data-name="Caminho 231" d="M584.274,195.381s14.715,10.081,18.048,42.009l-2.4-22.659S595.426,199.492,584.274,195.381Z" fill="#e19674"/>
    </g>
    <g id="Grupo_303" data-name="Grupo 303">
      <path id="Caminho_232" data-name="Caminho 232" d="M569.119,150.239s-6.178,12.238-20.831,11.655c0,0-.926-12.91.477-14.161,1.6-1.428,18.268-4.026,20.173-3.073,1.781.89,3.52,3.668.591,7.375C569.529,152.035,569.453,151.674,569.119,150.239Z" fill="#39332e"/>
    </g>
    <g id="Grupo_304" data-name="Grupo 304">
      <path id="Caminho_233" data-name="Caminho 233" d="M548.759,147.733s-4.121,2.641-3.114,15.172c.864,10.759-14.484,21.107-14.308,34.023S549.775,211.2,555,206.217c6.113-5.828,5.687-17.168,1.184-24.034s-1.638-14.062-3.357-22.027A53,53,0,0,0,548.759,147.733Z" fill="#39332e"/>
    </g>
    <g id="Grupo_305" data-name="Grupo 305">
      <path id="Caminho_234" data-name="Caminho 234" d="M553.086,155.978s-2.489-2.611-4.811-.368c-1.921,1.851-1,7.1,4.99,7.295a8.155,8.155,0,0,0-.179-6.927" fill="#e19674"/>
    </g>
    <g id="Grupo_306" data-name="Grupo 306">
      <path id="Caminho_235" data-name="Caminho 235" d="M579.847,258.08s3.117-4.242,3.9-5.281a19.336,19.336,0,0,1,2.354-2.376l.4,1.947a5.015,5.015,0,0,0,2.2-3.071,2.075,2.075,0,0,1,1.5,2.331s.981,4.108.359,6.759a18.016,18.016,0,0,1-6.279,5.285S580.8,261.024,579.847,258.08Z" fill="#e19674"/>
    </g>
    <g id="Grupo_307" data-name="Grupo 307">
      <path id="Caminho_236" data-name="Caminho 236" d="M603.541,292.45s-7.166-3.7-9.284-2.957c0,0-.52.95.466,2.6,0,0-.14,4.662,1.992,6.272s5.685,1.793,6.941,1.62Z" fill="#e19674"/>
    </g>
    <g id="Grupo_308" data-name="Grupo 308">
      <path id="Caminho_237" data-name="Caminho 237" d="M504.151,311.82l-.022.01a44.18,44.18,0,0,0-.151,5.029c31.75,11.072,67.771-36.59,67.771-36.59l-.005,0C549.222,305.755,518.684,321.477,504.151,311.82Z" fill="#39332e"/>
    </g>
    <g id="Grupo_309" data-name="Grupo 309">
      <path id="Caminho_238" data-name="Caminho 238" d="M366.873,464.331a28.521,28.521,0,1,1,28.521-28.52A28.552,28.552,0,0,1,366.873,464.331Zm0-56.392a27.871,27.871,0,1,0,27.871,27.872A27.9,27.9,0,0,0,366.873,407.939Z" fill="#393838"/>
    </g>
    <g id="Grupo_310" data-name="Grupo 310">
      <path id="Caminho_239" data-name="Caminho 239" d="M360.123,474.824h-3.39l.659-12.363.649.035-.622,11.678h2.151l1.724-10.715.641.1Z" fill="#393838"/>
    </g>
    <g id="Grupo_311" data-name="Grupo 311">
      <path id="Caminho_240" data-name="Caminho 240" d="M377.179,474.824h-3.39l-1.812-11.26.641-.1,1.724,10.715h2.151l-.622-11.678.649-.035Z" fill="#393838"/>
    </g>
    <g id="Grupo_322" data-name="Grupo 322">
      <g id="Grupo_312" data-name="Grupo 312">
        <path id="Caminho_241" data-name="Caminho 241" d="M650.246,584.77c-9.557,3.29-29,12.147-34.347,30.961a1.1,1.1,0,0,0,1.219,1.4l42.676-6.48,42.677-6.481a1.1,1.1,0,0,0,.748-1.7c-10.688-16.38-31.887-19.065-41.99-19.37A30.876,30.876,0,0,0,650.246,584.77Z" fill="#bc5700"/>
      </g>
      <g id="Grupo_313" data-name="Grupo 313">
        <path id="Caminho_242" data-name="Caminho 242" d="M701.228,604.359l-41.434,6.292-41.433,6.292a84.118,84.118,0,0,0-2.65,20.927l47.13-7.156,47.13-7.157A84.1,84.1,0,0,0,701.228,604.359Z" fill="#e6d7a8"/>
      </g>
      <g id="Grupo_314" data-name="Grupo 314">
        <path id="Caminho_243" data-name="Caminho 243" d="M625.607,615.772s-.413,8.844-.317,14.736l2.044-14.928Z" fill="#39332e"/>
      </g>
      <g id="Grupo_315" data-name="Grupo 315">
        <path id="Caminho_244" data-name="Caminho 244" d="M629.675,615.224s-.836,9.477-1.059,12.744l2.921-13.1Z" fill="#39332e"/>
      </g>
      <g id="Grupo_316" data-name="Grupo 316">
        <path id="Caminho_245" data-name="Caminho 245" d="M695.454,605.236a134.307,134.307,0,0,1,6.5,13.631s-3.287-9.818-4.861-13.88Z" fill="#39332e"/>
      </g>
      <g id="Grupo_317" data-name="Grupo 317">
        <path id="Caminho_246" data-name="Caminho 246" d="M692.645,605.662s4.349,8.929,6.266,13.667c0,0-6.663-10.763-8.383-13.416Z" fill="#39332e"/>
      </g>
      <g id="Grupo_318" data-name="Grupo 318">
        <path id="Caminho_247" data-name="Caminho 247" d="M637.057,614.1l1.93,7.979-.536-8.261Z" fill="#39332e"/>
      </g>
      <g id="Grupo_319" data-name="Grupo 319">
        <path id="Caminho_248" data-name="Caminho 248" d="M686.449,606.6l1.93,7.979-.536-8.261Z" fill="#39332e"/>
      </g>
      <g id="Grupo_320" data-name="Grupo 320">
        <path id="Caminho_249" data-name="Caminho 249" d="M665.256,609.821l2.081,13.7L666.3,609.593Z" fill="#39332e"/>
      </g>
      <g id="Grupo_321" data-name="Grupo 321">
        <path id="Caminho_250" data-name="Caminho 250" d="M663.373,610.037l1.878,12.368-3.272-12.086Z" fill="#39332e"/>
      </g>
    </g>
  </g>
</svg>
