<svg xmlns="http://www.w3.org/2000/svg" xmlns:xlink="http://www.w3.org/1999/xlink" width="285.229" height="120.824" viewBox="0 0 285.229 120.824">
  <defs>
    <linearGradient id="linear-gradient" x1="0.51" y1="-0.433" x2="0.489" y2="1.538" gradientUnits="objectBoundingBox">
      <stop offset="0" stop-color="#0276db"/>
      <stop offset="1" stop-color="#c835f8"/>
    </linearGradient>
    <linearGradient id="linear-gradient-2" x1="0.512" y1="0.07" x2="0.47" y2="1.702" gradientUnits="objectBoundingBox">
      <stop offset="0" stop-color="#1a85f8"/>
      <stop offset="1" stop-color="#c835f8"/>
    </linearGradient>
    <linearGradient id="linear-gradient-3" x1="-0.18" y1="1.074" x2="1.319" y2="-0.372" gradientUnits="objectBoundingBox">
      <stop offset="0" stop-color="#0276db"/>
      <stop offset="1" stop-color="#2ddaff"/>
    </linearGradient>
    <linearGradient id="linear-gradient-4" x1="0.632" y1="-0.579" x2="0.339" y2="1.932" xlink:href="#linear-gradient-2"/>
  </defs>
  <g id="Grupo_6" data-name="Grupo 6" transform="translate(-998.926 -604.928)">
    <g id="Grupo_5" data-name="Grupo 5" transform="translate(950.405 376.023)">
      <g id="Grupo_1" data-name="Grupo 1">
        <path id="Caminho_1" data-name="Caminho 1" d="M93.239,348.7,64.077,319.544l3.867,3.866C78.4,322.274,88.8,322.4,98.5,320.649V346.73c0,2.857-3.234,4-5.258,1.973m52.4-96.371a53.083,53.083,0,0,1-37.486,82.358,3.568,3.568,0,0,1-3.409-3.555V319.753a3.286,3.286,0,0,1,2.211-3.1c.133-.037.272-.074.413-.114a21.1,21.1,0,0,0,5.386-2.4l-.069.039c19.1-12.828,31.8-35.4,33.537-59.241,0-.588-.007-1.176-.022-1.761-.189-.276-.375-.564-.565-.844Z" fill-rule="evenodd" fill="url(#linear-gradient)"/>
        <path id="Caminho_2" data-name="Caminho 2" d="M75.19,330.654l-7.246-7.244a69.9,69.9,0,0,0,9.193.611,69,69,0,0,0,21.36-3.372v5.824a72.1,72.1,0,0,1-21.622,4.139c-.565.022-1.124.033-1.685.042m71.01-77.477.049.862c.04.61.072,1.224.092,1.835a72.1,72.1,0,0,1-31.055,61.98l.033.054L113.2,319.25l-2.145,1.4-.036-.053q-2.71,1.606-5.547,2.969l-.724.351v-4.163a3.263,3.263,0,0,1,.464-1.679,68.374,68.374,0,0,0,6.642-3.4h0c.284-.158.563-.325.84-.5a69.034,69.034,0,0,0,33.535-59.241C146.221,254.35,146.214,253.762,146.2,253.177Z" fill-rule="evenodd" opacity="0.2"/>
        <path id="Caminho_3" data-name="Caminho 3" d="M67.944,323.41l-3.867-3.866a52.719,52.719,0,0,1-9.789-13.523c9.169-4.3,18.031-8.57,26.274-11.676v1.945a21.137,21.137,0,0,0,15.311,20.252h0c.133.04.274.077.413.114a3.289,3.289,0,0,1,2.206,3.1v.9a69,69,0,0,1-21.36,3.372,69.891,69.891,0,0,1-9.193-.611m40.567-93.988A52.827,52.827,0,0,1,146.2,253.177c.015.585.022,1.173.022,1.761a69.027,69.027,0,0,1-33.537,59.241,21.088,21.088,0,0,0,9.994-17.889V267.718A21.148,21.148,0,0,0,108.454,247.8h0c.415-3.07-.449-6.338-.449-9.454s.886-5.979.506-8.924Z" fill-rule="evenodd" fill="url(#linear-gradient-2)"/>
        <path id="Caminho_4" data-name="Caminho 4" d="M89.244,230.423a53.7,53.7,0,0,1,18.575-1.085l.692.084a69.866,69.866,0,0,1-.055,18.382q.912.319,1.787.713a59.409,59.409,0,0,0-1.732-19.1,53.794,53.794,0,0,0-19.267,1M57.72,311.85a52.813,52.813,0,0,1-3.429-5.829,68.764,68.764,0,0,0,26.271-11.676v1.945A20.964,20.964,0,0,0,80.894,300l-1.227.9A72.622,72.622,0,0,1,57.72,311.85Z" fill-rule="evenodd" opacity="0.2"/>
        <path id="Caminho_5" data-name="Caminho 5" d="M54.288,306.021a53.015,53.015,0,0,1,54.223-76.6,69.9,69.9,0,0,1-.055,18.386,20.84,20.84,0,0,0-6.836-1.148,21.12,21.12,0,0,0-21.058,21.058v26.627A68.756,68.756,0,0,1,54.288,306.02" fill-rule="evenodd" fill="url(#linear-gradient-3)"/>
        <path id="Caminho_6" data-name="Caminho 6" d="M116.434,282v14.29a14.812,14.812,0,0,1-28.952,4.41,2.4,2.4,0,0,1,2.32-3.1h8.7a3.12,3.12,0,1,0,0-6.241H89.928a3.122,3.122,0,1,1,0-6.244H98.5a3.12,3.12,0,1,0,0-6.241H89.928a3.12,3.12,0,0,1,0-6.239H98.5a3.122,3.122,0,0,0,0-6.244H89.8a2.4,2.4,0,0,1-2.32-3.1,14.812,14.812,0,0,1,28.952,4.414Z" fill-rule="evenodd" fill="url(#linear-gradient-4)"/>
        <path id="Caminho_7" data-name="Caminho 7" d="M116.434,286.643a14.794,14.794,0,0,1-24.751,10.964H89.8a2.4,2.4,0,0,0-2.32,3.1,14.812,14.812,0,0,0,28.952-4.414Z" fill-rule="evenodd" opacity="0.2"/>
        <path id="Caminho_8" data-name="Caminho 8" d="M51.963,263.3a53.062,53.062,0,0,1,99.38,37.23,57.564,57.564,0,0,0-99.38-37.23" fill="#66e5fb" fill-rule="evenodd" opacity="0.2"/>
        <path id="Caminho_9" data-name="Caminho 9" d="M85.869,253.782a20.965,20.965,0,0,0-5.307,13.936V296.29a21.137,21.137,0,0,0,15.311,20.252h0c.133.04.274.077.413.114a3.293,3.293,0,0,1,2.206,3.1V346.73a2.867,2.867,0,0,1-2.585,2.984H95.9l-.054.007h-.079c-.077.006-.154.006-.233.006h-.18a3.377,3.377,0,0,1-2.12-1.018l-1.569-1.569c1.258,1.018,3.689,1.742,3.689-.758V322.653a3.288,3.288,0,0,0-2.209-3.1l-.412-.116a21.18,21.18,0,0,1-14.98-16.53,20.7,20.7,0,0,1-.334-3.722v-28.57a21.055,21.055,0,0,1,8.445-16.833" fill-rule="evenodd" opacity="0.2"/>
      </g>
      <g id="Grupo_3" data-name="Grupo 3">
        <g id="Grupo_2" data-name="Grupo 2">
          <path id="VOICES_OF_LEADERSHIP" data-name="VOICES OF LEADERSHIP" d="M6.553.11H10.47l6.077-27.2H13L10.14-13.215C9.628-10.506,9.188-8.383,8.749-5.2H8.676c-.476-3.258-.915-5.528-1.428-8.09l-2.819-13.8H.476ZM25.515.293c4.942,0,8.273-4.137,8.273-13.837s-3.331-13.874-8.273-13.874c-4.979,0-8.273,4.173-8.273,13.874S20.537.293,25.515.293Zm0-3.514c-2.929,0-4.246-3.514-4.246-10.323s1.318-10.213,4.246-10.213,4.246,3.4,4.246,10.213S28.444-3.221,25.515-3.221ZM37.083,0H41.11V-27.089H37.083ZM52.531.293c4.942,0,6.846-4.063,7.541-9.481l-3.807-.366c-.512,4.612-1.5,6.333-3.734,6.333-2.892,0-4.1-3.368-4.1-10.36,0-6.809,1.171-10.177,4.063-10.177,2.123,0,3.038,1.83,3.478,6.077l3.807-.4c-.476-5.894-2.416-9.335-7.285-9.335-5.052,0-8.09,4.063-8.09,13.874C44.4-3.661,47.333.293,52.531.293ZM62.818,0H75.081V-3.441H66.844v-9.152h5.6v-3.368h-5.6v-7.578h7.834v-3.551H62.818ZM84.123.4C88.3.4,91.151-2.343,91.151-6.37c0-7.395-10.03-9.445-10.03-14.862a2.44,2.44,0,0,1,2.672-2.709c1.9,0,2.855,1.464,3.587,4.393l3.551-.915c-.988-4.246-2.855-7.029-6.992-7.029-4.027,0-6.736,2.489-6.736,6.516,0,7.321,10.03,9.7,10.03,14.789a2.8,2.8,0,0,1-3.075,3.112c-2.379,0-3.587-1.757-4.21-4.942l-3.661.7C77.168-2.709,79.327.4,84.123.4Zm23.9-.11c4.942,0,8.273-4.137,8.273-13.837s-3.331-13.874-8.273-13.874c-4.979,0-8.273,4.173-8.273,13.874S103.049.293,108.027.293Zm0-3.514c-2.929,0-4.246-3.514-4.246-10.323s1.318-10.213,4.246-10.213,4.246,3.4,4.246,10.213S110.956-3.221,108.027-3.221ZM119.412,0h4.027V-12.337h5.637V-15.7h-5.637v-7.834h7.8v-3.551H119.412ZM1.977,34h11.9V30.559H6V6.911H1.977Zm14.57,0H28.81V30.559H20.573V21.407h5.6V18.039h-5.6V10.462h7.834V6.911H16.546Zm24.087-9.957H35.948l.842-4.027c.549-2.782,1.025-4.649,1.464-8.237h.11c.439,3.551.915,5.528,1.464,8.31Zm-5.345,3.148h6L42.684,34H46.6L40.451,6.8H36.534L30.384,34H33.9ZM49.09,34h5.345c6.187,0,9.811-3.112,9.811-13.581S60.731,6.911,54.435,6.911H49.09Zm4.027-3.4V10.425H54.91c3.99,0,5.271,2.819,5.271,9.994C60.182,27.7,58.9,30.6,54.947,30.6ZM67.32,34H79.584V30.559H71.347V21.407h5.6V18.039h-5.6V10.462h7.834V6.911H67.32ZM86.356,20.2V10.388H88.3c3.075,0,4.21,1.171,4.21,4.759,0,3.771-1.171,5.052-4.063,5.052Zm6.223,2.2c2.892-1.428,3.844-4.283,3.844-7.321,0-5.747-2.929-8.163-8.054-8.163h-5.93V34h3.917V23.457h2.636L92.8,34h3.99ZM106.2,34.4c4.173,0,7.029-2.746,7.029-6.772,0-7.395-10.03-9.445-10.03-14.862a2.44,2.44,0,0,1,2.672-2.709c1.9,0,2.855,1.464,3.587,4.393l3.551-.915c-.988-4.246-2.855-7.029-6.992-7.029-4.027,0-6.736,2.489-6.736,6.516,0,7.321,10.03,9.7,10.03,14.789a2.8,2.8,0,0,1-3.075,3.112c-2.379,0-3.587-1.757-4.21-4.942l-3.661.7C99.242,31.291,101.4,34.4,106.2,34.4Zm10.177-.4H120.4V21.444h6.809V34h3.99V6.911h-3.99V17.966H120.4V6.911h-4.027Zm19,0H139.4V6.911h-4.027Zm8.163,0h3.954V23.75h2.27c3.917,0,7.8-1.537,7.8-8.566,0-6.406-3.551-8.273-7.651-8.273h-6.37Zm3.954-13.581V10.388h2.416c2.526,0,3.7,1.318,3.7,4.905,0,3.734-1.208,5.125-3.661,5.125Z" transform="translate(176.194 297.412)" fill="#3386ff"/>
        </g>
      </g>
      <g id="Grupo_4" data-name="Grupo 4">
        <path id="Caminho_10" data-name="Caminho 10" d="M182.673,249.676l-3.31-7.156a.971.971,0,0,0-.879-.562h-2.29l6.367,13.761a.7.7,0,0,0,1.265,0l6.367-13.761h-2.3a.957.957,0,0,0-.867.555l-3.314,7.163a.574.574,0,0,1-1.039,0Z" fill="#fff"/>
        <path id="Retângulo_1" data-name="Retângulo 1" d="M.485,0h1.7A.452.452,0,0,1,2.64.452V14.106H0V.485A.485.485,0,0,1,.485,0Z" transform="translate(195.906 256.094) rotate(180)" fill="#fff"/>
        <path id="Caminho_11" data-name="Caminho 11" d="M208.972,241.966H199.4v1.567a.894.894,0,0,0,.894.894h1.883a.69.69,0,0,1,.689.689v10.313a.664.664,0,0,0,.664.665h1.263a.712.712,0,0,0,.712-.712V245.093a.667.667,0,0,1,.667-.666h1.971a.828.828,0,0,0,.828-.828Z" fill="#fff"/>
        <path id="Caminho_12" data-name="Caminho 12" d="M221.4,241.966h-9.571v1.567a.894.894,0,0,0,.894.894h1.883a.69.69,0,0,1,.689.689v10.313a.664.664,0,0,0,.664.665h1.263a.712.712,0,0,0,.712-.712V245.093a.667.667,0,0,1,.667-.666h1.971a.828.828,0,0,0,.828-.828Z" fill="#fff"/>
        <path id="Caminho_13" data-name="Caminho 13" d="M229.036,242.363a.7.7,0,0,0-1.266,0l-6.367,13.76h2.3a.954.954,0,0,0,.867-.554l.99-2.14h5.689l.987,2.132a.966.966,0,0,0,.878.562h2.29Zm-2.256,8.426,1.623-3.508,1.623,3.508Z" fill="#fff"/>
      </g>
    </g>
  </g>
</svg>
