<svg xmlns="http://www.w3.org/2000/svg" xmlns:xlink="http://www.w3.org/1999/xlink" width="286.599" height="120.753" viewBox="0 0 286.599 120.753">
  <defs>
    <linearGradient id="linear-gradient" x1="0.51" y1="-0.433" x2="0.489" y2="1.538" gradientUnits="objectBoundingBox">
      <stop offset="0" stop-color="#0276db"/>
      <stop offset="1" stop-color="#c835f8"/>
    </linearGradient>
    <linearGradient id="linear-gradient-2" x1="0.512" y1="0.07" x2="0.47" y2="1.702" gradientUnits="objectBoundingBox">
      <stop offset="0" stop-color="#1a85f8"/>
      <stop offset="1" stop-color="#c835f8"/>
    </linearGradient>
    <linearGradient id="linear-gradient-3" x1="-0.18" y1="1.074" x2="1.319" y2="-0.372" gradientUnits="objectBoundingBox">
      <stop offset="0" stop-color="#0276db"/>
      <stop offset="1" stop-color="#2ddaff"/>
    </linearGradient>
    <linearGradient id="linear-gradient-4" x1="0.632" y1="-0.579" x2="0.339" y2="1.932" xlink:href="#linear-gradient-2"/>
  </defs>
  <g id="Grupo_6" data-name="Grupo 6" transform="translate(-999 -605)">
    <g id="Grupo_5" data-name="Grupo 5" transform="translate(950.405 376.023)">
      <g id="Grupo_1" data-name="Grupo 1">
        <path id="Caminho_1" data-name="Caminho 1" d="M93.239,348.7,64.077,319.544l3.867,3.866C78.4,322.274,88.8,322.4,98.5,320.649V346.73c0,2.857-3.234,4-5.258,1.973m52.4-96.371a53.083,53.083,0,0,1-37.486,82.358,3.568,3.568,0,0,1-3.409-3.555V319.753a3.286,3.286,0,0,1,2.211-3.1c.133-.037.272-.074.413-.114a21.1,21.1,0,0,0,5.386-2.4l-.069.039c19.1-12.828,31.8-35.4,33.537-59.241,0-.588-.007-1.176-.022-1.761C146.014,252.9,145.828,252.612,145.638,252.332Z" fill-rule="evenodd" fill="url(#linear-gradient)"/>
        <path id="Caminho_2" data-name="Caminho 2" d="M75.19,330.654l-7.246-7.244a69.89,69.89,0,0,0,9.193.611,69,69,0,0,0,21.36-3.372v5.824a72.1,72.1,0,0,1-21.622,4.139c-.565.022-1.124.033-1.685.042M146.2,253.177l.049.862c.04.61.072,1.224.092,1.835a72.1,72.1,0,0,1-31.055,61.98l.033.054-2.123,1.342-2.145,1.4-.036-.053q-2.71,1.606-5.547,2.969l-.724.351v-4.163a3.263,3.263,0,0,1,.464-1.679,68.368,68.368,0,0,0,6.642-3.4l0,0c.284-.158.563-.325.84-.5a69.034,69.034,0,0,0,33.535-59.241C146.221,254.35,146.214,253.762,146.2,253.177Z" fill-rule="evenodd" opacity="0.2"/>
        <path id="Caminho_3" data-name="Caminho 3" d="M67.944,323.41l-3.867-3.866a52.719,52.719,0,0,1-9.789-13.523c9.169-4.3,18.031-8.57,26.274-11.676v1.945a21.137,21.137,0,0,0,15.311,20.252h0c.133.04.274.077.413.114a3.289,3.289,0,0,1,2.206,3.1v.9a69,69,0,0,1-21.36,3.372,69.89,69.89,0,0,1-9.193-.611m40.567-93.988A52.827,52.827,0,0,1,146.2,253.177c.015.585.022,1.173.022,1.761a69.027,69.027,0,0,1-33.537,59.241,21.088,21.088,0,0,0,9.994-17.889V267.718A21.148,21.148,0,0,0,108.454,247.8l0,0c.415-3.07-.449-6.338-.449-9.454S108.891,232.367,108.511,229.422Z" fill-rule="evenodd" fill="url(#linear-gradient-2)"/>
        <path id="Caminho_4" data-name="Caminho 4" d="M89.244,230.423a53.7,53.7,0,0,1,18.575-1.085l.692.084a69.866,69.866,0,0,1-.055,18.382q.912.319,1.787.713a59.409,59.409,0,0,0-1.732-19.1,53.794,53.794,0,0,0-19.267,1M57.72,311.85a52.814,52.814,0,0,1-3.429-5.829,68.763,68.763,0,0,0,26.271-11.676v1.945a20.978,20.978,0,0,0,.333,3.718l-1.228.9A72.622,72.622,0,0,1,57.72,311.85Z" fill-rule="evenodd" opacity="0.2"/>
        <path id="Caminho_5" data-name="Caminho 5" d="M54.288,306.021a53.015,53.015,0,0,1,54.223-76.6,69.9,69.9,0,0,1-.055,18.386,20.84,20.84,0,0,0-6.836-1.148,21.12,21.12,0,0,0-21.058,21.058v26.627a68.756,68.756,0,0,1-26.274,11.676" fill-rule="evenodd" fill="url(#linear-gradient-3)"/>
        <path id="Caminho_6" data-name="Caminho 6" d="M116.434,282V296.29A14.812,14.812,0,0,1,87.482,300.7a2.4,2.4,0,0,1,2.32-3.1H98.5a3.12,3.12,0,1,0,0-6.241H89.928a3.122,3.122,0,1,1,0-6.243H98.5a3.12,3.12,0,1,0,0-6.241H89.928a3.119,3.119,0,1,1,0-6.239H98.5a3.122,3.122,0,1,0,0-6.244H89.8a2.4,2.4,0,0,1-2.32-3.1,14.812,14.812,0,0,1,28.952,4.414Z" fill-rule="evenodd" fill="url(#linear-gradient-4)"/>
        <path id="Caminho_7" data-name="Caminho 7" d="M116.434,286.643a14.794,14.794,0,0,1-24.751,10.964H89.8a2.4,2.4,0,0,0-2.32,3.1,14.812,14.812,0,0,0,28.952-4.414Z" fill-rule="evenodd" opacity="0.2"/>
        <path id="Caminho_8" data-name="Caminho 8" d="M51.963,263.3a52.641,52.641,0,0,1,12.114-18.837,53.073,53.073,0,0,1,87.266,56.067,57.564,57.564,0,0,0-99.38-37.23" fill="#66e5fb" fill-rule="evenodd" opacity="0.2"/>
        <path id="Caminho_9" data-name="Caminho 9" d="M85.869,253.782a20.965,20.965,0,0,0-5.307,13.936V296.29a21.137,21.137,0,0,0,15.311,20.252h0c.133.04.274.077.413.114a3.293,3.293,0,0,1,2.206,3.1V346.73a2.867,2.867,0,0,1-2.585,2.984H95.9l-.054.007h-.01l-.052,0h-.017c-.077.006-.154.006-.233.006h-.015l-.046,0h-.023l-.044,0-.022,0h-.03a3.377,3.377,0,0,1-2.12-1.018l-1.569-1.569c1.258,1.018,3.689,1.742,3.689-.758V322.653a3.288,3.288,0,0,0-2.209-3.1l-.412-.116a21.18,21.18,0,0,1-14.98-16.53,20.7,20.7,0,0,1-.334-3.722V270.615a21.055,21.055,0,0,1,8.445-16.833" fill-rule="evenodd" opacity="0.2"/>
      </g>
      <g id="Grupo_3" data-name="Grupo 3">
        <g id="Grupo_2" data-name="Grupo 2">
          <text id="VOICES_OF_LEADERSHIP" data-name="VOICES OF
LEADERSHIP" transform="translate(176.194 297.412)" fill="#3386ff" font-size="36.607" font-family="BentonSansCompressed-Medium, Benton Sans Compressed" font-weight="500"><tspan x="0" y="0">VOICES OF</tspan><tspan x="0" y="34">LEADERSHIP</tspan></text>
        </g>
      </g>
      <g id="Grupo_4" data-name="Grupo 4">
        <path id="Caminho_10" data-name="Caminho 10" d="M182.673,249.676l-3.31-7.156a.971.971,0,0,0-.879-.562h-2.29l6.367,13.761a.7.7,0,0,0,1.265,0l6.367-13.761h-2.3a.957.957,0,0,0-.867.555l-3.314,7.163A.574.574,0,0,1,182.673,249.676Z" fill="#fff"/>
        <path id="Retângulo_1" data-name="Retângulo 1" d="M.485,0h1.7A.452.452,0,0,1,2.64.452V14.106a0,0,0,0,1,0,0H0a0,0,0,0,1,0,0V.485A.485.485,0,0,1,.485,0Z" transform="translate(195.906 256.094) rotate(180)" fill="#fff"/>
        <path id="Caminho_11" data-name="Caminho 11" d="M208.972,241.966H199.4v1.567a.894.894,0,0,0,.894.894h1.883a.69.69,0,0,1,.689.689v10.313a.664.664,0,0,0,.664.665h1.263a.712.712,0,0,0,.712-.712V245.093a.667.667,0,0,1,.667-.666h1.971a.828.828,0,0,0,.828-.828Z" fill="#fff"/>
        <path id="Caminho_12" data-name="Caminho 12" d="M221.4,241.966h-9.571v1.567a.894.894,0,0,0,.894.894h1.883a.69.69,0,0,1,.689.689v10.313a.664.664,0,0,0,.664.665h1.263a.712.712,0,0,0,.712-.712V245.093a.667.667,0,0,1,.667-.666h1.971a.828.828,0,0,0,.828-.828Z" fill="#fff"/>
        <path id="Caminho_13" data-name="Caminho 13" d="M229.036,242.363a.7.7,0,0,0-1.266,0l-6.367,13.76h2.3a.954.954,0,0,0,.867-.554l.99-2.14h5.689l.987,2.132a.966.966,0,0,0,.878.562h2.29Zm-2.256,8.426,1.623-3.508,1.623,3.508Z" fill="#fff"/>
      </g>
    </g>
  </g>
</svg>
