<svg xmlns="http://www.w3.org/2000/svg" width="697.611" height="168.949" viewBox="0 0 697.611 168.949">
  <g id="Grupo_2" data-name="Grupo 2" transform="translate(-151.389 -415.834)">
    <path id="Caminho_1" data-name="Caminho 1" d="M533.076,415.835h-99.3a20.518,20.518,0,0,0-15.836,7.473c-11.322,13.7-38.828,41.427-71.134,41.91-32.3-.483-59.812-28.21-71.133-41.91a20.519,20.519,0,0,0-15.836-7.473h-99.3A9.128,9.128,0,0,0,154.727,432l179.435,148a19.129,19.129,0,0,0,25.287,0L538.884,432A9.128,9.128,0,0,0,533.076,415.835Z" fill="#fff"/>
    <g id="Grupo_1" data-name="Grupo 1">
      <path id="Caminho_2" data-name="Caminho 2" d="M611.532,503.168l-14.91-32.226a4.36,4.36,0,0,0-3.957-2.529H582.354l28.672,61.97a3.141,3.141,0,0,0,5.7,0l28.672-61.97H635.05a4.3,4.3,0,0,0-3.9,2.5l-14.926,32.259A2.582,2.582,0,0,1,611.532,503.168Z" fill="#fff"/>
      <path id="Retângulo_1" data-name="Retângulo 1" d="M.485,0h10.95a.452.452,0,0,1,.452.452V63.527a0,0,0,0,1,0,0H0a0,0,0,0,1,0,0V.485A.485.485,0,0,1,.485,0Z" transform="translate(671.126 532.072) rotate(180)" fill="#fff"/>
      <path id="Caminho_3" data-name="Caminho 3" d="M729.973,468.447H686.865V475.5a4.028,4.028,0,0,0,4.027,4.028h8.48a3.1,3.1,0,0,1,3.1,3.1v46.445a2.994,2.994,0,0,0,2.993,2.994h5.688a3.206,3.206,0,0,0,3.206-3.206V482.531a3,3,0,0,1,3-3h8.879a3.731,3.731,0,0,0,3.731-3.731Z" fill="#fff"/>
      <path id="Caminho_4" data-name="Caminho 4" d="M785.956,468.447H742.848V475.5a4.029,4.029,0,0,0,4.028,4.028h8.48a3.1,3.1,0,0,1,3.1,3.1v46.445a2.994,2.994,0,0,0,2.993,2.994h5.688a3.206,3.206,0,0,0,3.206-3.206V482.531a3,3,0,0,1,3-3h8.88a3.73,3.73,0,0,0,3.73-3.731Z" fill="#fff"/>
      <path id="Caminho_5" data-name="Caminho 5" d="M820.328,470.234a3.141,3.141,0,0,0-5.7,0L785.956,532.2H796.3a4.3,4.3,0,0,0,3.9-2.5l4.459-9.637h25.62l4.444,9.6a4.359,4.359,0,0,0,3.957,2.529H849Zm-10.16,37.95,7.31-15.8,7.31,15.8Z" fill="#fff"/>
    </g>
  </g>
</svg>
