<svg xmlns="http://www.w3.org/2000/svg" width="199.93" height="87" viewBox="0 0 199.93 87">
  <g id="Grupo_1" data-name="Grupo 1" transform="translate(-855.573 -59)">
    <path id="Caminho_1" data-name="Caminho 1" d="M863.15,108.813a2.723,2.723,0,0,0,2.845-2.882,2.614,2.614,0,0,0-2.808-2.809h-1.22c-.407,0-.592.184-.592.591v4.546c0,.37.185.554.592.554Zm.074-10.164a2.55,2.55,0,0,0,2.55-2.809,2.436,2.436,0,0,0-2.735-2.661h-1.072c-.407,0-.592.184-.592.554v4.325a.527.527,0,0,0,.592.591Zm-6.986,14.933a.7.7,0,0,1-.665-.7V89.151a.7.7,0,0,1,.665-.7h7.244c4.325,0,7.762,3.031,7.762,7.135a6.553,6.553,0,0,1-2.218,4.878c-.258.259-.221.481,0,.665a6.358,6.358,0,0,1,2.513,5.028c0,4.066-3.289,7.429-8.131,7.429Z" fill="#0103a1"/>
    <path id="Caminho_2" data-name="Caminho 2" d="M888.423,99.5c1.737,0,2.7-1.441,2.7-3.252,0-1.738-.888-3-2.7-3h-.7c-.444,0-.629.223-.629.666v4.916c0,.48.185.665.629.665Zm3.733,14.083a.6.6,0,0,1-.628-.444l-2.847-8.168c-.184-.518-.369-.629-.665-.629h-.369c-.407,0-.555.185-.555.666v7.873a.7.7,0,0,1-.665.7h-4.472a.7.7,0,0,1-.667-.7V89.151a.7.7,0,0,1,.667-.7h6.431c5.36,0,8.612,2.292,8.612,7.578a7.085,7.085,0,0,1-2.957,6.247c-.3.221-.369.406-.111,1.034l3.66,9.278a.693.693,0,0,1-.666,1Z" fill="#0103a1"/>
    <path id="Caminho_3" data-name="Caminho 3" d="M916.053,96.32c-.037-.147-.112-.147-.149,0l-1.515,9.02c-.074.442.111.665.518.665H916.9c.444,0,.666-.223.592-.665Zm3.289,17.262a.678.678,0,0,1-.665-.591l-.37-2.219a.632.632,0,0,0-.7-.59h-3.437a.622.622,0,0,0-.667.59l-.406,2.219c-.073.443-.259.591-.7.591h-4.325c-.444,0-.776-.333-.629-.925l5.433-23.617a.685.685,0,0,1,.7-.593h5.1a.711.711,0,0,1,.665.63l5.248,23.617a.669.669,0,0,1-.665.888Z" fill="#0103a1"/>
    <path id="Caminho_4" data-name="Caminho 4" d="M945.378,113.582a.694.694,0,0,1-.665-.481l-5.138-13.787c-.073-.184-.185-.11-.185,0l.259,13.566a.7.7,0,0,1-.665.7h-3.956a.7.7,0,0,1-.665-.7V89.151a.7.7,0,0,1,.665-.7h3.993c.369,0,.591.3.739.63l5.064,13.6c.036.112.184.148.184-.037l-.258-13.49a.728.728,0,0,1,.7-.7h3.881a.728.728,0,0,1,.7.7V112.88a.728.728,0,0,1-.7.7Z" fill="#0103a1"/>
    <path id="Caminho_5" data-name="Caminho 5" d="M969.654,96.025c0-1.479-.629-2.587-2.071-2.587h-1.367a.6.6,0,0,0-.629.629v13.9a.665.665,0,0,0,.629.7h1.367c1.442,0,2.071-1.183,2.071-2.625Zm-9.2,17.557a.7.7,0,0,1-.665-.7V89.151a.7.7,0,0,1,.665-.7h7.984c3.807,0,7.022,2.515,7.022,6.8v11.57c0,4.288-3.178,6.764-7.022,6.764Z" fill="#0103a1"/>
    <path id="Caminho_6" data-name="Caminho 6" d="M993.078,108.888a2.132,2.132,0,0,0,2.144-2.107v-1.663a.6.6,0,0,0-.628-.628h-.888a.664.664,0,0,1-.665-.666v-3.1a.694.694,0,0,1,.665-.7h6.506a.693.693,0,0,1,.665.7v5.915c0,4.435-3.4,7.244-7.8,7.244-4.436,0-7.872-2.809-7.872-7.244v-11.2c0-4.435,3.473-7.281,7.91-7.281,4.472,0,7.8,2.772,7.8,7.281,0,.481-.037,1.22-.7,1.22h-4.361a.728.728,0,0,1-.665-.739c0-1.885-.813-2.772-2.108-2.772a2.049,2.049,0,0,0-2.07,2.107v11.532a2.028,2.028,0,0,0,2.07,2.107m9.986-32.281H983.442a1.3,1.3,0,0,0-1.3,1.3v48.767a1.3,1.3,0,0,0,1.3,1.305h19.622a1.3,1.3,0,0,0,1.3-1.305V77.911a1.3,1.3,0,0,0-1.3-1.3" fill="#0103a1"/>
    <path id="Caminho_7" data-name="Caminho 7" d="M1026.758,89.408l-4.917,14.49a5.81,5.81,0,0,0-.259,1.885v7.1a.727.727,0,0,1-.7.7h-4.4a.7.7,0,0,1-.665-.7V105.82a5.9,5.9,0,0,0-.259-1.885l-4.842-14.564a.651.651,0,0,1,.628-.923h4.473a.786.786,0,0,1,.738.628l1.922,7.318c.223.814.371.777.592,0l2.032-7.355c.112-.369.3-.591.888-.591h4.1a.692.692,0,0,1,.667.96m1.762-19.331H1008.9a1.3,1.3,0,0,0-1.3,1.3V144.7a1.3,1.3,0,0,0,1.3,1.3h19.621a1.3,1.3,0,0,0,1.3-1.3V71.381a1.3,1.3,0,0,0-1.3-1.3" fill="#0103a1"/>
    <path id="Caminho_8" data-name="Caminho 8" d="M1052.224,112.88a.728.728,0,0,1-.7.7h-4.213a.7.7,0,0,1-.665-.7V98.317c0-.185-.149-.185-.223,0l-1.588,4.731c-.223.739-.629.812-.851.074l-1.589-4.805c-.073-.185-.259-.185-.259,0V112.88a.727.727,0,0,1-.7.7h-4.213a.7.7,0,0,1-.665-.7V89.151a.7.7,0,0,1,.665-.7h4.583c.258,0,.554.149.7.629l1.627,5.914a.245.245,0,0,0,.479,0l1.738-5.914c.147-.406.259-.629.961-.629h4.213a.729.729,0,0,1,.7.7ZM1054.2,59h-19.622a1.3,1.3,0,0,0-1.3,1.3v77.31a1.3,1.3,0,0,0,1.3,1.3H1054.2a1.3,1.3,0,0,0,1.3-1.3V60.3a1.3,1.3,0,0,0-1.3-1.3" fill="#0103a1"/>
  </g>
</svg>
