<svg xmlns="http://www.w3.org/2000/svg" width="55.97" height="55.97" viewBox="0 0 55.97 55.97"><g id="Grupo_635" data-name="Grupo 635" transform="translate(-886.66 -511.687)"><circle id="Elipse_45" data-name="Elipse 45" cx="27.985" cy="27.985" r="27.985" transform="translate(886.66 511.687)" fill="#ffff1f"></circle><g id="Grupo_634" data-name="Grupo 634"><path id="Caminho_40" data-name="Caminho 40" d="M930.677,547.2q0-7.515,0-15.029c0-.209-.117-.418-.008-.628-.015-.133-.024-.267-.047-.4a9.139,9.139,0,0,0-9.009-7.578q-6.966-.008-13.933,0a8.929,8.929,0,0,0-2.017.22,9.137,9.137,0,0,0-7.133,8.972q0,6.917,0,13.834a8.2,8.2,0,0,0,.1,1.384,9.045,9.045,0,0,0,5.34,7.027,7.935,7.935,0,0,0,2.945.745c.061-.063.139-.037.21-.037h15.045c.071,0,.149-.026.21.037a2.168,2.168,0,0,0,.54-.05,9.046,9.046,0,0,0,7.129-5.525,7.871,7.871,0,0,0,.665-2.721C930.647,547.371,930.677,547.28,930.677,547.2Zm-3.027-.618a6.022,6.022,0,0,1-4.98,6.01,5.813,5.813,0,0,1-1.1.093q-6.917,0-13.833,0a6.025,6.025,0,0,1-6-4.946,5.726,5.726,0,0,1-.1-1.1q0-6.957,0-13.914a6.031,6.031,0,0,1,6.03-6.052q6.978-.008,13.955,0a6.031,6.031,0,0,1,5.957,5.112.617.617,0,0,0,.028.1l.025-.126c.028.1.039.17-.014.233C927.7,536.846,927.637,541.712,927.65,546.578Z" fill="#0103a1"></path><path id="Caminho_41" data-name="Caminho 41" d="M922,555.748q-7.356,0-14.71,0a1.022,1.022,0,0,0-.378-.005,3.618,3.618,0,0,0,.641.04h14.163a3.745,3.745,0,0,0,.661-.04A1.017,1.017,0,0,0,922,555.748Z" fill="#0103a1"></path><path id="Caminho_42" data-name="Caminho 42" d="M922.168,555.706H907.123c-.071,0-.149-.026-.21.037a1.022,1.022,0,0,1,.378.005q7.354,0,14.71,0a1.017,1.017,0,0,1,.377-.005C922.317,555.68,922.239,555.706,922.168,555.706Z" fill="#0103a1"></path><path id="Caminho_43" data-name="Caminho 43" d="M930.716,546.345v-2.073Q930.716,545.309,930.716,546.345Z" fill="#0103a1"></path><path id="Caminho_44" data-name="Caminho 44" d="M930.72,532.082a.674.674,0,0,1,.016.075A.253.253,0,0,0,930.72,532.082Z" fill="#0103a1"></path><path id="Caminho_45" data-name="Caminho 45" d="M930.719,547.02a1.25,1.25,0,0,0-.007.427l.008-.18a.267.267,0,0,0,.014-.054.533.533,0,0,1-.014.054C930.72,547.185,930.719,547.1,930.719,547.02Z" fill="#0103a1"></path><path id="Caminho_46" data-name="Caminho 46" d="M930.716,532.316v-.033c0-.067,0-.134,0-.2h0a1.982,1.982,0,0,0-.048-.543A6.5,6.5,0,0,0,930.716,532.316Z" fill="#0103a1"></path><path id="Caminho_47" data-name="Caminho 47" d="M930.719,547.02q0-.238,0-.477v-.2q0-1.036,0-2.073V532.316a6.5,6.5,0,0,1-.044-.777c-.109.21.009.419.008.628q-.008,7.515,0,15.029c0,.084-.03.175.035.251A1.25,1.25,0,0,1,930.719,547.02Z" fill="#0103a1"></path><path id="Caminho_48" data-name="Caminho 48" d="M930.72,532.082h0Z" fill="#0103a1"></path><path id="Caminho_49" data-name="Caminho 49" d="M930.755,532.741a3.356,3.356,0,0,0-.019-.584c0,.048,0,.1,0,.144q0,7.374,0,14.747a1.137,1.137,0,0,1,0,.165,2.087,2.087,0,0,0,.02-.425Q930.757,539.765,930.755,532.741Z" fill="#0103a1"></path><path id="Caminho_50" data-name="Caminho 50" d="M930.735,547.048q0-7.374,0-14.747c0-.048.005-.1,0-.144a.674.674,0,0,0-.016-.075h0c0,.067,0,.134,0,.2v.033c0,.034,0,.067,0,.1q0,5.288,0,10.574v3.354c0,.221,0,.443,0,.664v.011c0,.082,0,.165,0,.247a.533.533,0,0,0,.014-.054A1.137,1.137,0,0,0,930.735,547.048Z" fill="#0103a1"></path><path id="Caminho_51" data-name="Caminho 51" d="M930.719,547.02v-.011c0-.221,0-.443,0-.664v.2Q930.716,546.782,930.719,547.02Z" fill="#0103a1"></path><path id="Caminho_52" data-name="Caminho 52" d="M930.718,532.417c0-.034,0-.067,0-.1v10.675Q930.716,537.7,930.718,532.417Z" fill="#0103a1"></path><path id="Caminho_53" data-name="Caminho 53" d="M927.619,531.981c.053-.063.042-.13.014-.233l-.025.126C927.651,531.905,927.636,531.943,927.619,531.981Z" fill="#0103a1"></path><path id="Caminho_54" data-name="Caminho 54" d="M927.608,531.874l.011.107C927.636,531.943,927.651,531.905,927.608,531.874Z" fill="#0103a1"></path><path id="Caminho_55" data-name="Caminho 55" d="M923.021,539.232a4.424,4.424,0,0,0-.073-.82,8.4,8.4,0,0,0-15.977-2.154,7.728,7.728,0,0,0-.7,2.934,2.761,2.761,0,0,1,0,1.005,2.573,2.573,0,0,0,.05.62,8.311,8.311,0,0,0,4.727,6.442,7.484,7.484,0,0,0,3.154.791,2.112,2.112,0,0,1,.885,0,2.873,2.873,0,0,0,.681-.052,8.312,8.312,0,0,0,6.5-4.818,7.411,7.411,0,0,0,.749-3.063A2.128,2.128,0,0,1,923.021,539.232Zm-8.685,5.789,0-.019h.632v.019Zm.217-.058a5.293,5.293,0,1,1,5.381-5.189A5.3,5.3,0,0,1,914.553,544.963Zm5.44-4.976h-.019v-.672h.019Z" fill="#0103a1"></path><path id="Caminho_56" data-name="Caminho 56" d="M923.1,529.239a1.931,1.931,0,0,0-1.8,2.126,1.9,1.9,0,0,0,1.685,1.7.673.673,0,0,1,.482,0,1.923,1.923,0,0,0-.362-3.827Z" fill="#0103a1"></path><path id="Caminho_57" data-name="Caminho 57" d="M906.27,539.192a4.688,4.688,0,0,0,0,1.005C906.29,539.862,906.285,539.527,906.27,539.192Z" fill="#0103a1"></path><path id="Caminho_58" data-name="Caminho 58" d="M906.27,539.192c.015.335.02.67,0,1.005A2.761,2.761,0,0,0,906.27,539.192Z" fill="#0103a1"></path><path id="Caminho_59" data-name="Caminho 59" d="M914.2,548.05a4.591,4.591,0,0,0,.885,0A4.367,4.367,0,0,0,914.2,548.05Z" fill="#0103a1"></path><path id="Caminho_60" data-name="Caminho 60" d="M914.2,548.05a4.367,4.367,0,0,1,.885,0A2.112,2.112,0,0,0,914.2,548.05Z" fill="#0103a1"></path><path id="Caminho_61" data-name="Caminho 61" d="M923.021,540.117a4.67,4.67,0,0,0,0-.885A4.367,4.367,0,0,0,923.021,540.117Z" fill="#0103a1"></path><path id="Caminho_62" data-name="Caminho 62" d="M923.021,539.232a2.128,2.128,0,0,0,0,.885A4.367,4.367,0,0,1,923.021,539.232Z" fill="#0103a1"></path><path id="Caminho_63" data-name="Caminho 63" d="M922.984,533.066a1.06,1.06,0,0,0,.482,0A2.983,2.983,0,0,0,922.984,533.066Z" fill="#0103a1"></path><path id="Caminho_64" data-name="Caminho 64" d="M922.984,533.066a2.983,2.983,0,0,1,.482,0A.673.673,0,0,0,922.984,533.066Z" fill="#0103a1"></path><path id="Caminho_65" data-name="Caminho 65" d="M919.974,539.986h.019v-.673h-.019Z" fill="#0103a1"></path><path id="Caminho_66" data-name="Caminho 66" d="M914.332,545l0,.019h.629V545Z" fill="#0103a1"></path></g></g></svg>